<svg width="600" height="786" viewBox="0 0 600 786" fill="none" xmlns="http://www.w3.org/2000/svg">
<g clip-path="url(#clip0_2657_353)">
<rect width="600" height="785.714" rx="10" fill="#FFEDCA"/>
<g opacity="0.15" clip-path="url(#clip1_2657_353)">
<path d="M243.012 73.3466C260.012 73.432 276.296 80.2092 288.323 92.2157C300.349 104.222 307.137 120.479 307.223 137.449H243.012V73.3466Z" stroke="#1A2217" stroke-width="0.649714"/>
<path d="M243.012 397.446C260.012 397.531 276.296 404.308 288.323 416.315C300.349 428.321 307.137 444.578 307.223 461.548H243.012V397.446Z" stroke="#1A2217" stroke-width="0.649714"/>
<path d="M243.012 656.682C260.011 656.767 276.296 663.556 288.323 675.582C300.349 687.609 307.138 703.894 307.223 720.893H243.012V656.682Z" stroke="#1A2217" stroke-width="0.649714"/>
<path d="M243.012 -56.3798C260.011 -56.2942 276.296 -49.506 288.323 -37.4794C300.349 -25.4527 307.138 -9.16806 307.223 7.83118H243.012V-56.3798Z" stroke="#1A2217" stroke-width="0.649714"/>
<path d="M243.012 202.964C260.011 203.05 276.296 209.838 288.323 221.865C300.349 233.891 307.138 250.176 307.223 267.175H243.012V202.964Z" stroke="#1A2217" stroke-width="0.649714"/>
<path d="M243.012 527.063C260.011 527.149 276.296 533.937 288.323 545.964C300.349 557.99 307.138 574.275 307.223 591.274H243.012V527.063Z" stroke="#1A2217" stroke-width="0.649714"/>
<path d="M243.012 138.101C260.011 138.187 276.296 144.975 288.323 157.002C300.349 169.028 307.138 185.313 307.223 202.312H243.012V138.101Z" stroke="#1A2217" stroke-width="0.649714"/>
<path d="M243.012 462.201C260.011 462.286 276.296 469.074 288.323 481.101C300.349 493.128 307.138 509.412 307.223 526.412H243.012V462.201Z" stroke="#1A2217" stroke-width="0.649714"/>
<path d="M243.012 721.545C260.011 721.63 276.296 728.418 288.323 740.445C300.349 752.472 307.138 768.756 307.223 785.756H243.012V721.545Z" stroke="#1A2217" stroke-width="0.649714"/>
<path d="M243.012 8.4834C260.011 8.56894 276.296 15.3572 288.323 27.3838C300.349 39.4104 307.138 55.6951 307.223 72.6943H243.012V8.4834Z" stroke="#1A2217" stroke-width="0.649714"/>
<path d="M243.012 332.583C260.011 332.668 276.296 339.456 288.323 351.483C300.349 363.51 307.138 379.794 307.223 396.793H243.012V332.583Z" stroke="#1A2217" stroke-width="0.649714"/>
<path d="M243.012 267.828C260.012 267.913 276.296 274.69 288.323 286.697C300.349 298.703 307.137 314.96 307.223 331.93H243.012V267.828Z" stroke="#1A2217" stroke-width="0.649714"/>
<path d="M243.012 591.927C260.012 592.012 276.296 598.789 288.323 610.796C300.349 622.802 307.137 639.059 307.223 656.029H243.012V591.927Z" stroke="#1A2217" stroke-width="0.649714"/>
<path d="M-16.2236 73.3466C0.746868 73.4321 17.0035 80.2094 29.0098 92.2157C41.0161 104.222 47.7934 120.479 47.8789 137.449H-16.2236V73.3466Z" stroke="#1A2217" stroke-width="0.649714"/>
<path d="M-16.2236 397.446C0.746868 397.531 17.0035 404.308 29.0098 416.315C41.0161 428.321 47.7934 444.578 47.8789 461.548H-16.2236V397.446Z" stroke="#1A2217" stroke-width="0.649714"/>
<path d="M-16.2236 656.682C0.746679 656.768 17.0034 663.556 29.0098 675.582C41.0163 687.609 47.7935 703.893 47.8789 720.893H-16.2236V656.682Z" stroke="#1A2217" stroke-width="0.649714"/>
<path d="M502.356 73.3466C519.327 73.4321 535.584 80.2094 547.59 92.2157C559.596 104.222 566.373 120.479 566.459 137.449H502.356V73.3466Z" stroke="#1A2217" stroke-width="0.649714"/>
<path d="M502.356 397.446C519.327 397.531 535.584 404.308 547.59 416.315C559.596 428.321 566.373 444.578 566.459 461.548H502.356V397.446Z" stroke="#1A2217" stroke-width="0.649714"/>
<path d="M502.356 656.682C519.327 656.768 535.584 663.556 547.59 675.582C559.596 687.609 566.374 703.893 566.459 720.893H502.356V656.682Z" stroke="#1A2217" stroke-width="0.649714"/>
<path d="M-16.2236 -56.3798C0.746679 -56.2941 17.0034 -49.5058 29.0098 -37.4794C41.0163 -25.4528 47.7935 -9.16826 47.8789 7.83118H-16.2236V-56.3798Z" stroke="#1A2217" stroke-width="0.649714"/>
<path d="M-16.2236 202.964C0.746679 203.05 17.0034 209.838 29.0098 221.865C41.0163 233.891 47.7935 250.176 47.8789 267.175H-16.2236V202.964Z" stroke="#1A2217" stroke-width="0.649714"/>
<path d="M-16.2236 527.063C0.746679 527.149 17.0034 533.937 29.0098 545.964C41.0163 557.99 47.7935 574.275 47.8789 591.274H-16.2236V527.063Z" stroke="#1A2217" stroke-width="0.649714"/>
<path d="M502.356 -56.3798C519.327 -56.2941 535.584 -49.5058 547.59 -37.4794C559.596 -25.4528 566.374 -9.16826 566.459 7.83118H502.356V-56.3798Z" stroke="#1A2217" stroke-width="0.649714"/>
<path d="M502.356 202.964C519.327 203.05 535.584 209.838 547.59 221.865C559.596 233.891 566.374 250.176 566.459 267.175H502.356V202.964Z" stroke="#1A2217" stroke-width="0.649714"/>
<path d="M502.356 527.063C519.327 527.149 535.584 533.937 547.59 545.964C559.596 557.99 566.374 574.275 566.459 591.274H502.356V527.063Z" stroke="#1A2217" stroke-width="0.649714"/>
<path d="M-16.2236 138.101C0.746679 138.187 17.0034 144.975 29.0098 157.002C41.0163 169.028 47.7935 185.313 47.8789 202.312H-16.2236V138.101Z" stroke="#1A2217" stroke-width="0.649714"/>
<path d="M-16.2236 462.201C0.746679 462.286 17.0034 469.075 29.0098 481.101C41.0163 493.128 47.7935 509.412 47.8789 526.412H-16.2236V462.201Z" stroke="#1A2217" stroke-width="0.649714"/>
<path d="M-16.2236 721.545C0.746679 721.63 17.0034 728.419 29.0098 740.445C41.0163 752.472 47.7935 768.756 47.8789 785.756H-16.2236V721.545Z" stroke="#1A2217" stroke-width="0.649714"/>
<path d="M502.356 138.101C519.327 138.187 535.584 144.975 547.59 157.002C559.596 169.028 566.374 185.313 566.459 202.312H502.356V138.101Z" stroke="#1A2217" stroke-width="0.649714"/>
<path d="M502.356 462.201C519.327 462.286 535.584 469.075 547.59 481.101C559.596 493.128 566.374 509.412 566.459 526.412H502.356V462.201Z" stroke="#1A2217" stroke-width="0.649714"/>
<path d="M502.356 721.545C519.327 721.63 535.584 728.419 547.59 740.445C559.596 752.472 566.374 768.756 566.459 785.756H502.356V721.545Z" stroke="#1A2217" stroke-width="0.649714"/>
<path d="M-16.2236 8.4834C0.746679 8.56908 17.0034 15.3574 29.0098 27.3838C41.0163 39.4104 47.7935 55.6949 47.8789 72.6943H-16.2236V8.4834Z" stroke="#1A2217" stroke-width="0.649714"/>
<path d="M-16.2236 332.583C0.746679 332.668 17.0034 339.457 29.0098 351.483C41.0163 363.51 47.7935 379.794 47.8789 396.793H-16.2236V332.583Z" stroke="#1A2217" stroke-width="0.649714"/>
<path d="M-16.2236 267.828C0.746868 267.913 17.0035 274.69 29.0098 286.697C41.0161 298.703 47.7934 314.96 47.8789 331.93H-16.2236V267.828Z" stroke="#1A2217" stroke-width="0.649714"/>
<path d="M-16.2236 591.927C0.746868 592.012 17.0035 598.79 29.0098 610.796C41.0161 622.802 47.7934 639.059 47.8789 656.029H-16.2236V591.927Z" stroke="#1A2217" stroke-width="0.649714"/>
<path d="M502.356 8.4834C519.327 8.56908 535.584 15.3574 547.59 27.3838C559.596 39.4104 566.374 55.6949 566.459 72.6943H502.356V8.4834Z" stroke="#1A2217" stroke-width="0.649714"/>
<path d="M502.356 332.583C519.327 332.668 535.584 339.457 547.59 351.483C559.596 363.51 566.374 379.794 566.459 396.793H502.356V332.583Z" stroke="#1A2217" stroke-width="0.649714"/>
<path d="M502.356 267.828C519.327 267.913 535.584 274.69 547.59 286.697C559.596 298.703 566.373 314.96 566.459 331.93H502.356V267.828Z" stroke="#1A2217" stroke-width="0.649714"/>
<path d="M502.356 591.927C519.327 592.012 535.584 598.79 547.59 610.796C559.596 622.802 566.373 639.059 566.459 656.029H502.356V591.927Z" stroke="#1A2217" stroke-width="0.649714"/>
<path d="M372.63 73.3466C389.63 73.432 405.914 80.2092 417.941 92.2157C429.967 104.222 436.756 120.479 436.841 137.449H372.63V73.3466Z" stroke="#1A2217" stroke-width="0.649714"/>
<path d="M372.63 397.446C389.63 397.531 405.914 404.308 417.941 416.315C429.967 428.321 436.756 444.578 436.841 461.548H372.63V397.446Z" stroke="#1A2217" stroke-width="0.649714"/>
<path d="M372.63 656.682C389.63 656.767 405.914 663.556 417.941 675.582C429.968 687.609 436.756 703.894 436.841 720.893H372.63V656.682Z" stroke="#1A2217" stroke-width="0.649714"/>
<path d="M372.63 -56.3798C389.63 -56.2942 405.914 -49.506 417.941 -37.4794C429.968 -25.4527 436.756 -9.16806 436.841 7.83118H372.63V-56.3798Z" stroke="#1A2217" stroke-width="0.649714"/>
<path d="M372.63 202.964C389.63 203.05 405.914 209.838 417.941 221.865C429.968 233.891 436.756 250.176 436.841 267.175H372.63V202.964Z" stroke="#1A2217" stroke-width="0.649714"/>
<path d="M372.63 527.063C389.63 527.149 405.914 533.937 417.941 545.964C429.968 557.99 436.756 574.275 436.841 591.274H372.63V527.063Z" stroke="#1A2217" stroke-width="0.649714"/>
<path d="M372.63 138.101C389.63 138.187 405.914 144.975 417.941 157.002C429.968 169.028 436.756 185.313 436.841 202.312H372.63V138.101Z" stroke="#1A2217" stroke-width="0.649714"/>
<path d="M372.63 462.201C389.63 462.286 405.914 469.074 417.941 481.101C429.968 493.128 436.756 509.412 436.841 526.412H372.63V462.201Z" stroke="#1A2217" stroke-width="0.649714"/>
<path d="M372.63 721.545C389.63 721.63 405.914 728.418 417.941 740.445C429.968 752.472 436.756 768.756 436.841 785.756H372.63V721.545Z" stroke="#1A2217" stroke-width="0.649714"/>
<path d="M372.63 8.4834C389.63 8.56894 405.914 15.3572 417.941 27.3838C429.968 39.4104 436.756 55.6951 436.841 72.6943H372.63V8.4834Z" stroke="#1A2217" stroke-width="0.649714"/>
<path d="M372.63 332.583C389.63 332.668 405.914 339.456 417.941 351.483C429.968 363.51 436.756 379.794 436.841 396.793H372.63V332.583Z" stroke="#1A2217" stroke-width="0.649714"/>
<path d="M372.63 267.828C389.63 267.913 405.914 274.69 417.941 286.697C429.967 298.703 436.756 314.96 436.841 331.93H372.63V267.828Z" stroke="#1A2217" stroke-width="0.649714"/>
<path d="M372.63 591.927C389.63 592.012 405.914 598.789 417.941 610.796C429.967 622.802 436.756 639.059 436.841 656.029H372.63V591.927Z" stroke="#1A2217" stroke-width="0.649714"/>
<path d="M113.394 73.3466C130.393 73.432 146.678 80.2092 158.705 92.2157C170.731 104.222 177.519 120.479 177.605 137.449H113.394V73.3466Z" stroke="#1A2217" stroke-width="0.649714"/>
<path d="M113.394 397.446C130.393 397.531 146.678 404.308 158.705 416.315C170.731 428.321 177.519 444.578 177.605 461.548H113.394V397.446Z" stroke="#1A2217" stroke-width="0.649714"/>
<path d="M113.394 656.682C130.393 656.767 146.678 663.556 158.705 675.582C170.731 687.609 177.519 703.894 177.605 720.893H113.394V656.682Z" stroke="#1A2217" stroke-width="0.649714"/>
<path d="M113.394 -56.3798C130.393 -56.2942 146.678 -49.506 158.705 -37.4794C170.731 -25.4527 177.519 -9.16806 177.605 7.83118H113.394V-56.3798Z" stroke="#1A2217" stroke-width="0.649714"/>
<path d="M113.394 202.964C130.393 203.05 146.678 209.838 158.705 221.865C170.731 233.891 177.519 250.176 177.605 267.175H113.394V202.964Z" stroke="#1A2217" stroke-width="0.649714"/>
<path d="M113.394 527.063C130.393 527.149 146.678 533.937 158.705 545.964C170.731 557.99 177.519 574.275 177.605 591.274H113.394V527.063Z" stroke="#1A2217" stroke-width="0.649714"/>
<path d="M113.394 138.101C130.393 138.187 146.678 144.975 158.705 157.002C170.731 169.028 177.519 185.313 177.605 202.312H113.394V138.101Z" stroke="#1A2217" stroke-width="0.649714"/>
<path d="M113.394 462.201C130.393 462.286 146.678 469.074 158.705 481.101C170.731 493.128 177.519 509.412 177.605 526.412H113.394V462.201Z" stroke="#1A2217" stroke-width="0.649714"/>
<path d="M113.394 721.545C130.393 721.63 146.678 728.418 158.705 740.445C170.731 752.472 177.519 768.756 177.605 785.756H113.394V721.545Z" stroke="#1A2217" stroke-width="0.649714"/>
<path d="M113.394 8.4834C130.393 8.56894 146.678 15.3572 158.705 27.3838C170.731 39.4104 177.519 55.6951 177.605 72.6943H113.394V8.4834Z" stroke="#1A2217" stroke-width="0.649714"/>
<path d="M113.394 332.583C130.393 332.668 146.678 339.456 158.705 351.483C170.731 363.51 177.519 379.794 177.605 396.793H113.394V332.583Z" stroke="#1A2217" stroke-width="0.649714"/>
<path d="M113.394 267.828C130.393 267.913 146.678 274.69 158.705 286.697C170.731 298.703 177.519 314.96 177.605 331.93H113.394V267.828Z" stroke="#1A2217" stroke-width="0.649714"/>
<path d="M113.394 591.927C130.393 592.012 146.678 598.789 158.705 610.796C170.731 622.802 177.519 639.059 177.605 656.029H113.394V591.927Z" stroke="#1A2217" stroke-width="0.649714"/>
<path d="M307.875 73.3466C324.846 73.4321 341.103 80.2094 353.109 92.2157C365.115 104.222 371.892 120.479 371.978 137.449H307.875V73.3466Z" stroke="#1A2217" stroke-width="0.649714"/>
<path d="M307.875 397.446C324.846 397.531 341.103 404.308 353.109 416.315C365.115 428.321 371.892 444.578 371.978 461.548H307.875V397.446Z" stroke="#1A2217" stroke-width="0.649714"/>
<path d="M307.875 656.682C324.846 656.768 341.103 663.556 353.109 675.582C365.115 687.609 371.893 703.893 371.978 720.893H307.875V656.682Z" stroke="#1A2217" stroke-width="0.649714"/>
<path d="M307.875 -56.3798C324.846 -56.2941 341.103 -49.5058 353.109 -37.4794C365.115 -25.4528 371.893 -9.16826 371.978 7.83118H307.875V-56.3798Z" stroke="#1A2217" stroke-width="0.649714"/>
<path d="M307.875 202.964C324.846 203.05 341.103 209.838 353.109 221.865C365.115 233.891 371.893 250.176 371.978 267.175H307.875V202.964Z" stroke="#1A2217" stroke-width="0.649714"/>
<path d="M307.875 527.063C324.846 527.149 341.103 533.937 353.109 545.964C365.115 557.99 371.893 574.275 371.978 591.274H307.875V527.063Z" stroke="#1A2217" stroke-width="0.649714"/>
<path d="M307.875 138.101C324.846 138.187 341.103 144.975 353.109 157.002C365.115 169.028 371.893 185.313 371.978 202.312H307.875V138.101Z" stroke="#1A2217" stroke-width="0.649714"/>
<path d="M307.875 462.201C324.846 462.286 341.103 469.075 353.109 481.101C365.115 493.128 371.893 509.412 371.978 526.412H307.875V462.201Z" stroke="#1A2217" stroke-width="0.649714"/>
<path d="M307.875 721.545C324.846 721.63 341.103 728.419 353.109 740.445C365.115 752.472 371.893 768.756 371.978 785.756H307.875V721.545Z" stroke="#1A2217" stroke-width="0.649714"/>
<path d="M307.875 8.4834C324.846 8.56908 341.103 15.3574 353.109 27.3838C365.115 39.4104 371.893 55.6949 371.978 72.6943H307.875V8.4834Z" stroke="#1A2217" stroke-width="0.649714"/>
<path d="M307.875 332.583C324.846 332.668 341.103 339.457 353.109 351.483C365.115 363.51 371.893 379.794 371.978 396.793H307.875V332.583Z" stroke="#1A2217" stroke-width="0.649714"/>
<path d="M307.875 267.828C324.846 267.913 341.103 274.69 353.109 286.697C365.115 298.703 371.892 314.96 371.978 331.93H307.875V267.828Z" stroke="#1A2217" stroke-width="0.649714"/>
<path d="M307.875 591.927C324.846 592.012 341.103 598.79 353.109 610.796C365.115 622.802 371.892 639.059 371.978 656.029H307.875V591.927Z" stroke="#1A2217" stroke-width="0.649714"/>
<path d="M48.5312 73.3466C65.5306 73.432 81.8152 80.2092 93.8418 92.2157C105.868 104.222 112.657 120.479 112.742 137.449H48.5312V73.3466Z" stroke="#1A2217" stroke-width="0.649714"/>
<path d="M48.5312 397.446C65.5306 397.531 81.8152 404.308 93.8418 416.315C105.868 428.321 112.657 444.578 112.742 461.548H48.5312V397.446Z" stroke="#1A2217" stroke-width="0.649714"/>
<path d="M48.5312 656.682C65.5305 656.767 81.8152 663.556 93.8418 675.582C105.868 687.609 112.657 703.894 112.742 720.893H48.5312V656.682Z" stroke="#1A2217" stroke-width="0.649714"/>
<path d="M567.111 73.3466C584.111 73.432 600.395 80.2092 612.422 92.2157C624.448 104.222 631.237 120.479 631.322 137.449H567.111V73.3466Z" stroke="#1A2217" stroke-width="0.649714"/>
<path d="M567.111 397.446C584.111 397.531 600.395 404.308 612.422 416.315C624.448 428.321 631.237 444.578 631.322 461.548H567.111V397.446Z" stroke="#1A2217" stroke-width="0.649714"/>
<path d="M567.111 656.682C584.111 656.767 600.395 663.556 612.422 675.582C624.448 687.609 631.237 703.894 631.322 720.893H567.111V656.682Z" stroke="#1A2217" stroke-width="0.649714"/>
<path d="M48.5312 -56.3798C65.5305 -56.2942 81.8152 -49.506 93.8418 -37.4794C105.868 -25.4527 112.657 -9.16806 112.742 7.83118H48.5312V-56.3798Z" stroke="#1A2217" stroke-width="0.649714"/>
<path d="M48.5312 202.964C65.5305 203.05 81.8152 209.838 93.8418 221.865C105.868 233.891 112.657 250.176 112.742 267.175H48.5312V202.964Z" stroke="#1A2217" stroke-width="0.649714"/>
<path d="M48.5312 527.063C65.5305 527.149 81.8152 533.937 93.8418 545.964C105.868 557.99 112.657 574.275 112.742 591.274H48.5312V527.063Z" stroke="#1A2217" stroke-width="0.649714"/>
<path d="M567.111 -56.3798C584.111 -56.2942 600.395 -49.506 612.422 -37.4794C624.448 -25.4527 631.237 -9.16806 631.322 7.83118H567.111V-56.3798Z" stroke="#1A2217" stroke-width="0.649714"/>
<path d="M567.111 202.964C584.111 203.05 600.395 209.838 612.422 221.865C624.448 233.891 631.237 250.176 631.322 267.175H567.111V202.964Z" stroke="#1A2217" stroke-width="0.649714"/>
<path d="M567.111 527.063C584.111 527.149 600.395 533.937 612.422 545.964C624.448 557.99 631.237 574.275 631.322 591.274H567.111V527.063Z" stroke="#1A2217" stroke-width="0.649714"/>
<path d="M48.5312 138.101C65.5305 138.187 81.8152 144.975 93.8418 157.002C105.868 169.028 112.657 185.313 112.742 202.312H48.5312V138.101Z" stroke="#1A2217" stroke-width="0.649714"/>
<path d="M48.5312 462.201C65.5305 462.286 81.8152 469.074 93.8418 481.101C105.868 493.128 112.657 509.412 112.742 526.412H48.5312V462.201Z" stroke="#1A2217" stroke-width="0.649714"/>
<path d="M48.5312 721.545C65.5305 721.63 81.8152 728.418 93.8418 740.445C105.868 752.472 112.657 768.756 112.742 785.756H48.5312V721.545Z" stroke="#1A2217" stroke-width="0.649714"/>
<path d="M567.111 138.101C584.111 138.187 600.395 144.975 612.422 157.002C624.448 169.028 631.237 185.313 631.322 202.312H567.111V138.101Z" stroke="#1A2217" stroke-width="0.649714"/>
<path d="M567.111 462.201C584.111 462.286 600.395 469.074 612.422 481.101C624.448 493.128 631.237 509.412 631.322 526.412H567.111V462.201Z" stroke="#1A2217" stroke-width="0.649714"/>
<path d="M567.111 721.545C584.111 721.63 600.395 728.418 612.422 740.445C624.448 752.472 631.237 768.756 631.322 785.756H567.111V721.545Z" stroke="#1A2217" stroke-width="0.649714"/>
<path d="M48.5312 8.4834C65.5305 8.56894 81.8152 15.3572 93.8418 27.3838C105.868 39.4104 112.657 55.6951 112.742 72.6943H48.5312V8.4834Z" stroke="#1A2217" stroke-width="0.649714"/>
<path d="M48.5312 332.583C65.5305 332.668 81.8152 339.456 93.8418 351.483C105.868 363.51 112.657 379.794 112.742 396.793H48.5312V332.583Z" stroke="#1A2217" stroke-width="0.649714"/>
<path d="M48.5312 267.828C65.5306 267.913 81.8152 274.69 93.8418 286.697C105.868 298.703 112.657 314.96 112.742 331.93H48.5312V267.828Z" stroke="#1A2217" stroke-width="0.649714"/>
<path d="M48.5312 591.927C65.5306 592.012 81.8152 598.789 93.8418 610.796C105.868 622.802 112.657 639.059 112.742 656.029H48.5312V591.927Z" stroke="#1A2217" stroke-width="0.649714"/>
<path d="M567.111 8.4834C584.111 8.56894 600.395 15.3572 612.422 27.3838C624.448 39.4104 631.237 55.6951 631.322 72.6943H567.111V8.4834Z" stroke="#1A2217" stroke-width="0.649714"/>
<path d="M567.111 332.583C584.111 332.668 600.395 339.456 612.422 351.483C624.448 363.51 631.237 379.794 631.322 396.793H567.111V332.583Z" stroke="#1A2217" stroke-width="0.649714"/>
<path d="M567.111 267.828C584.111 267.913 600.395 274.69 612.422 286.697C624.448 298.703 631.237 314.96 631.322 331.93H567.111V267.828Z" stroke="#1A2217" stroke-width="0.649714"/>
<path d="M567.111 591.927C584.111 592.012 600.395 598.789 612.422 610.796C624.448 622.802 631.237 639.059 631.322 656.029H567.111V591.927Z" stroke="#1A2217" stroke-width="0.649714"/>
<path d="M437.493 73.3466C454.493 73.432 470.777 80.2092 482.804 92.2157C494.83 104.222 501.619 120.479 501.704 137.449H437.493V73.3466Z" stroke="#1A2217" stroke-width="0.649714"/>
<path d="M437.493 397.446C454.493 397.531 470.777 404.308 482.804 416.315C494.83 428.321 501.619 444.578 501.704 461.548H437.493V397.446Z" stroke="#1A2217" stroke-width="0.649714"/>
<path d="M437.493 656.682C454.493 656.767 470.777 663.556 482.804 675.582C494.831 687.609 501.619 703.894 501.704 720.893H437.493V656.682Z" stroke="#1A2217" stroke-width="0.649714"/>
<path d="M437.493 -56.3798C454.493 -56.2942 470.777 -49.506 482.804 -37.4794C494.831 -25.4527 501.619 -9.16806 501.704 7.83118H437.493V-56.3798Z" stroke="#1A2217" stroke-width="0.649714"/>
<path d="M437.493 202.964C454.493 203.05 470.777 209.838 482.804 221.865C494.831 233.891 501.619 250.176 501.704 267.175H437.493V202.964Z" stroke="#1A2217" stroke-width="0.649714"/>
<path d="M437.493 527.063C454.493 527.149 470.777 533.937 482.804 545.964C494.831 557.99 501.619 574.275 501.704 591.274H437.493V527.063Z" stroke="#1A2217" stroke-width="0.649714"/>
<path d="M437.493 138.101C454.493 138.187 470.777 144.975 482.804 157.002C494.831 169.028 501.619 185.313 501.704 202.312H437.493V138.101Z" stroke="#1A2217" stroke-width="0.649714"/>
<path d="M437.493 462.201C454.493 462.286 470.777 469.074 482.804 481.101C494.831 493.128 501.619 509.412 501.704 526.412H437.493V462.201Z" stroke="#1A2217" stroke-width="0.649714"/>
<path d="M437.493 721.545C454.493 721.63 470.777 728.418 482.804 740.445C494.831 752.472 501.619 768.756 501.704 785.756H437.493V721.545Z" stroke="#1A2217" stroke-width="0.649714"/>
<path d="M437.493 8.4834C454.493 8.56894 470.777 15.3572 482.804 27.3838C494.831 39.4104 501.619 55.6951 501.704 72.6943H437.493V8.4834Z" stroke="#1A2217" stroke-width="0.649714"/>
<path d="M437.493 332.583C454.493 332.668 470.777 339.456 482.804 351.483C494.831 363.51 501.619 379.794 501.704 396.793H437.493V332.583Z" stroke="#1A2217" stroke-width="0.649714"/>
<path d="M437.493 267.828C454.493 267.913 470.777 274.69 482.804 286.697C494.83 298.703 501.619 314.96 501.704 331.93H437.493V267.828Z" stroke="#1A2217" stroke-width="0.649714"/>
<path d="M437.493 591.927C454.493 592.012 470.777 598.789 482.804 610.796C494.83 622.802 501.619 639.059 501.704 656.029H437.493V591.927Z" stroke="#1A2217" stroke-width="0.649714"/>
<path d="M178.257 73.3466C195.228 73.4321 211.484 80.2094 223.491 92.2157C235.497 104.222 242.274 120.479 242.36 137.449H178.257V73.3466Z" stroke="#1A2217" stroke-width="0.649714"/>
<path d="M178.257 397.446C195.228 397.531 211.484 404.308 223.491 416.315C235.497 428.321 242.274 444.578 242.36 461.548H178.257V397.446Z" stroke="#1A2217" stroke-width="0.649714"/>
<path d="M178.257 656.682C195.228 656.768 211.484 663.556 223.491 675.582C235.497 687.609 242.275 703.893 242.36 720.893H178.257V656.682Z" stroke="#1A2217" stroke-width="0.649714"/>
<path d="M178.257 -56.3798C195.228 -56.2941 211.484 -49.5058 223.491 -37.4794C235.497 -25.4528 242.275 -9.16826 242.36 7.83118H178.257V-56.3798Z" stroke="#1A2217" stroke-width="0.649714"/>
<path d="M178.257 202.964C195.228 203.05 211.484 209.838 223.491 221.865C235.497 233.891 242.275 250.176 242.36 267.175H178.257V202.964Z" stroke="#1A2217" stroke-width="0.649714"/>
<path d="M178.257 527.063C195.228 527.149 211.484 533.937 223.491 545.964C235.497 557.99 242.275 574.275 242.36 591.274H178.257V527.063Z" stroke="#1A2217" stroke-width="0.649714"/>
<path d="M178.257 138.101C195.228 138.187 211.484 144.975 223.491 157.002C235.497 169.028 242.275 185.313 242.36 202.312H178.257V138.101Z" stroke="#1A2217" stroke-width="0.649714"/>
<path d="M178.257 462.201C195.228 462.286 211.484 469.075 223.491 481.101C235.497 493.128 242.275 509.412 242.36 526.412H178.257V462.201Z" stroke="#1A2217" stroke-width="0.649714"/>
<path d="M178.257 721.545C195.228 721.63 211.484 728.419 223.491 740.445C235.497 752.472 242.275 768.756 242.36 785.756H178.257V721.545Z" stroke="#1A2217" stroke-width="0.649714"/>
<path d="M178.257 8.4834C195.228 8.56908 211.484 15.3574 223.491 27.3838C235.497 39.4104 242.275 55.6949 242.36 72.6943H178.257V8.4834Z" stroke="#1A2217" stroke-width="0.649714"/>
<path d="M178.257 332.583C195.228 332.668 211.484 339.457 223.491 351.483C235.497 363.51 242.275 379.794 242.36 396.793H178.257V332.583Z" stroke="#1A2217" stroke-width="0.649714"/>
<path d="M178.257 267.828C195.228 267.913 211.484 274.69 223.491 286.697C235.497 298.703 242.274 314.96 242.36 331.93H178.257V267.828Z" stroke="#1A2217" stroke-width="0.649714"/>
<path d="M178.257 591.927C195.228 592.012 211.484 598.79 223.491 610.796C235.497 622.802 242.274 639.059 242.36 656.029H178.257V591.927Z" stroke="#1A2217" stroke-width="0.649714"/>
</g>
<path d="M169.934 87.3125C171.177 87.3125 172.297 88.0054 173.042 89.0005C175.774 92.6537 180.134 95.0185 185.047 95.0186C189.96 95.0186 194.32 92.6539 197.053 89.0006C197.797 88.0054 198.918 87.3125 200.161 87.3125H208.466C209.709 87.3125 210.83 88.0054 211.574 89.0006C214.306 92.6537 218.666 95.0184 223.579 95.0186C228.492 95.0186 232.853 92.6538 235.585 89.0006C236.33 88.0054 237.45 87.3125 238.693 87.3125H246.999C248.241 87.3125 249.362 88.0054 250.106 89.0006C252.839 92.6538 257.199 95.0186 262.112 95.0186C267.025 95.0184 271.385 92.6537 274.118 89.0006C274.862 88.0054 275.982 87.3125 277.225 87.3125H285.531C286.773 87.3125 287.894 88.0054 288.638 89.0006C291.371 92.6539 295.731 95.0186 300.645 95.0186C305.558 95.0185 309.918 92.6539 312.651 89.0006C313.395 88.0054 314.516 87.3125 315.758 87.3125H324.064C325.307 87.3125 326.427 88.0054 327.172 89.0006C329.904 92.6537 334.264 95.0185 339.177 95.0186C344.09 95.0186 348.45 92.6539 351.183 89.0006C351.927 88.0054 353.048 87.3125 354.291 87.3125H362.596C363.839 87.3125 364.959 88.0054 365.704 89.0006C368.436 92.6539 372.797 95.0186 377.71 95.0186C382.623 95.0185 386.983 92.6537 389.715 89.0006C390.46 88.0054 391.58 87.3125 392.823 87.3125H401.129C402.372 87.3125 403.493 88.0054 404.237 89.0005C406.969 92.6537 411.329 95.0185 416.242 95.0186C421.155 95.0186 425.516 92.6539 428.248 89.0006C428.993 88.0054 430.113 87.3125 431.356 87.3125H507.864C509.756 87.3125 511.289 88.846 511.289 90.7376V387.204C511.289 388.406 510.639 389.497 509.697 390.244C506.233 392.989 504.011 397.232 504.011 401.995C504.011 406.758 506.233 411.001 509.697 413.745C510.639 414.492 511.289 415.583 511.289 416.785V426.592C511.289 427.795 510.639 428.886 509.697 429.633C506.233 432.377 504.011 436.621 504.011 441.384C504.011 446.146 506.233 450.389 509.697 453.134C510.639 453.881 511.289 454.972 511.289 456.174V465.981C511.289 467.183 510.639 468.275 509.697 469.021C506.233 471.766 504.011 476.01 504.011 480.772C504.011 485.535 506.233 489.778 509.697 492.523C510.639 493.269 511.289 494.36 511.289 495.563V505.37C511.289 506.572 510.639 507.663 509.697 508.41C506.233 511.155 504.011 515.398 504.011 520.161C504.011 524.924 506.233 529.168 509.697 531.912C510.639 532.659 511.289 533.75 511.289 534.952V544.759C511.289 545.962 510.639 547.053 509.697 547.8C506.233 550.544 504.011 554.788 504.011 559.551C504.011 564.313 506.233 568.556 509.697 571.301C510.639 572.048 511.289 573.139 511.289 574.341V584.148C511.289 585.35 510.639 586.442 509.697 587.188C506.233 589.933 504.011 594.177 504.011 598.939C504.011 603.702 506.233 607.945 509.697 610.69C510.639 611.436 511.289 612.527 511.289 613.73V702.977C511.289 704.869 509.756 706.402 507.864 706.402H431.356C430.113 706.402 428.993 705.709 428.248 704.714C425.516 701.061 421.155 698.695 416.242 698.695C411.329 698.695 406.969 701.061 404.237 704.714C403.493 705.709 402.372 706.402 401.129 706.402H392.823C391.58 706.402 390.46 705.709 389.715 704.714C386.983 701.061 382.623 698.695 377.71 698.695C372.797 698.695 368.436 701.061 365.704 704.714C364.959 705.709 363.839 706.402 362.596 706.402H354.291C353.048 706.402 351.927 705.709 351.183 704.714C348.45 701.061 344.09 698.695 339.177 698.695C334.264 698.695 329.904 701.061 327.172 704.714C326.427 705.709 325.307 706.402 324.064 706.402H315.758C314.516 706.402 313.395 705.709 312.651 704.714C309.918 701.061 305.558 698.695 300.645 698.695C295.731 698.695 291.371 701.061 288.638 704.714C287.894 705.709 286.773 706.402 285.531 706.402H277.225C275.982 706.402 274.862 705.709 274.118 704.714C271.385 701.061 267.025 698.695 262.112 698.695C257.199 698.695 252.839 701.061 250.106 704.714C249.362 705.709 248.241 706.402 246.999 706.402H238.693C237.45 706.402 236.33 705.709 235.585 704.714C232.853 701.061 228.492 698.695 223.579 698.695C218.666 698.695 214.306 701.061 211.574 704.714C210.83 705.709 209.709 706.402 208.466 706.402H200.161C198.918 706.402 197.797 705.709 197.053 704.714C194.321 701.061 189.96 698.695 185.047 698.695C180.134 698.695 175.774 701.061 173.042 704.714C172.297 705.709 171.177 706.402 169.934 706.402H93.4251C91.5335 706.402 90 704.869 90 702.977V613.73C90 612.527 90.6497 611.436 91.5921 610.69C95.0559 607.945 97.2783 603.702 97.2783 598.939C97.2783 594.177 95.0561 589.933 91.5921 587.188C90.6498 586.442 90 585.35 90 584.148V574.341C90 573.139 90.6498 572.048 91.5921 571.301C95.0559 568.556 97.2782 564.313 97.2783 559.551C97.2783 554.788 95.056 550.544 91.5921 547.8C90.6498 547.053 90 545.962 90 544.759V534.952C90 533.75 90.6498 532.659 91.5921 531.912C95.056 529.167 97.2783 524.924 97.2783 520.161C97.2782 515.398 95.0561 511.155 91.5922 508.41C90.6498 507.663 90 506.572 90 505.37V495.563C90 494.36 90.6497 493.269 91.5921 492.523C95.0559 489.778 97.2783 485.535 97.2783 480.772C97.2782 476.01 95.0561 471.766 91.5922 469.021C90.6498 468.275 90 467.183 90 465.981V456.174C90 454.972 90.6497 453.881 91.5921 453.134C95.0559 450.389 97.2783 446.146 97.2783 441.384C97.2783 436.621 95.0561 432.377 91.5922 429.633C90.6498 428.886 90 427.795 90 426.592V416.785C90 415.583 90.6497 414.492 91.5921 413.745C95.0559 411.001 97.2783 406.758 97.2783 401.995C97.2783 397.232 95.0561 392.989 91.5921 390.244C90.6498 389.497 90 388.406 90 387.204V90.7376C90 88.846 91.5335 87.3125 93.4251 87.3125H169.934Z" fill="white"/>
<path d="M169.934 87.3125C171.177 87.3125 172.297 88.0054 173.042 89.0005C175.774 92.6537 180.134 95.0185 185.047 95.0186C189.96 95.0186 194.32 92.6539 197.053 89.0006C197.797 88.0054 198.918 87.3125 200.161 87.3125H208.466C209.709 87.3125 210.83 88.0054 211.574 89.0006C214.306 92.6537 218.666 95.0184 223.579 95.0186C228.492 95.0186 232.853 92.6538 235.585 89.0006C236.33 88.0054 237.45 87.3125 238.693 87.3125H246.999C248.241 87.3125 249.362 88.0054 250.106 89.0006C252.839 92.6538 257.199 95.0186 262.112 95.0186C267.025 95.0184 271.385 92.6537 274.118 89.0006C274.862 88.0054 275.982 87.3125 277.225 87.3125H285.531C286.773 87.3125 287.894 88.0054 288.638 89.0006C291.371 92.6539 295.731 95.0186 300.645 95.0186C305.558 95.0185 309.918 92.6539 312.651 89.0006C313.395 88.0054 314.516 87.3125 315.758 87.3125H324.064C325.307 87.3125 326.427 88.0054 327.172 89.0006C329.904 92.6537 334.264 95.0185 339.177 95.0186C344.09 95.0186 348.45 92.6539 351.183 89.0006C351.927 88.0054 353.048 87.3125 354.291 87.3125H362.596C363.839 87.3125 364.959 88.0054 365.704 89.0006C368.436 92.6539 372.797 95.0186 377.71 95.0186C382.623 95.0185 386.983 92.6537 389.715 89.0006C390.46 88.0054 391.58 87.3125 392.823 87.3125H401.129C402.372 87.3125 403.493 88.0054 404.237 89.0005C406.969 92.6537 411.329 95.0185 416.242 95.0186C421.155 95.0186 425.516 92.6539 428.248 89.0006C428.993 88.0054 430.113 87.3125 431.356 87.3125H507.864C509.756 87.3125 511.289 88.846 511.289 90.7376V387.204C511.289 388.406 510.639 389.497 509.697 390.244C506.233 392.989 504.011 397.232 504.011 401.995C504.011 406.758 506.233 411.001 509.697 413.745C510.639 414.492 511.289 415.583 511.289 416.785V426.592C511.289 427.795 510.639 428.886 509.697 429.633C506.233 432.377 504.011 436.621 504.011 441.384C504.011 446.146 506.233 450.389 509.697 453.134C510.639 453.881 511.289 454.972 511.289 456.174V465.981C511.289 467.183 510.639 468.275 509.697 469.021C506.233 471.766 504.011 476.01 504.011 480.772C504.011 485.535 506.233 489.778 509.697 492.523C510.639 493.269 511.289 494.36 511.289 495.563V505.37C511.289 506.572 510.639 507.663 509.697 508.41C506.233 511.155 504.011 515.398 504.011 520.161C504.011 524.924 506.233 529.168 509.697 531.912C510.639 532.659 511.289 533.75 511.289 534.952V544.759C511.289 545.962 510.639 547.053 509.697 547.8C506.233 550.544 504.011 554.788 504.011 559.551C504.011 564.313 506.233 568.556 509.697 571.301C510.639 572.048 511.289 573.139 511.289 574.341V584.148C511.289 585.35 510.639 586.442 509.697 587.188C506.233 589.933 504.011 594.177 504.011 598.939C504.011 603.702 506.233 607.945 509.697 610.69C510.639 611.436 511.289 612.527 511.289 613.73V702.977C511.289 704.869 509.756 706.402 507.864 706.402H431.356C430.113 706.402 428.993 705.709 428.248 704.714C425.516 701.061 421.155 698.695 416.242 698.695C411.329 698.695 406.969 701.061 404.237 704.714C403.493 705.709 402.372 706.402 401.129 706.402H392.823C391.58 706.402 390.46 705.709 389.715 704.714C386.983 701.061 382.623 698.695 377.71 698.695C372.797 698.695 368.436 701.061 365.704 704.714C364.959 705.709 363.839 706.402 362.596 706.402H354.291C353.048 706.402 351.927 705.709 351.183 704.714C348.45 701.061 344.09 698.695 339.177 698.695C334.264 698.695 329.904 701.061 327.172 704.714C326.427 705.709 325.307 706.402 324.064 706.402H315.758C314.516 706.402 313.395 705.709 312.651 704.714C309.918 701.061 305.558 698.695 300.645 698.695C295.731 698.695 291.371 701.061 288.638 704.714C287.894 705.709 286.773 706.402 285.531 706.402H277.225C275.982 706.402 274.862 705.709 274.118 704.714C271.385 701.061 267.025 698.695 262.112 698.695C257.199 698.695 252.839 701.061 250.106 704.714C249.362 705.709 248.241 706.402 246.999 706.402H238.693C237.45 706.402 236.33 705.709 235.585 704.714C232.853 701.061 228.492 698.695 223.579 698.695C218.666 698.695 214.306 701.061 211.574 704.714C210.83 705.709 209.709 706.402 208.466 706.402H200.161C198.918 706.402 197.797 705.709 197.053 704.714C194.321 701.061 189.96 698.695 185.047 698.695C180.134 698.695 175.774 701.061 173.042 704.714C172.297 705.709 171.177 706.402 169.934 706.402H93.4251C91.5335 706.402 90 704.869 90 702.977V613.73C90 612.527 90.6497 611.436 91.5921 610.69C95.0559 607.945 97.2783 603.702 97.2783 598.939C97.2783 594.177 95.0561 589.933 91.5921 587.188C90.6498 586.442 90 585.35 90 584.148V574.341C90 573.139 90.6498 572.048 91.5921 571.301C95.0559 568.556 97.2782 564.313 97.2783 559.551C97.2783 554.788 95.056 550.544 91.5921 547.8C90.6498 547.053 90 545.962 90 544.759V534.952C90 533.75 90.6498 532.659 91.5921 531.912C95.056 529.167 97.2783 524.924 97.2783 520.161C97.2782 515.398 95.0561 511.155 91.5922 508.41C90.6498 507.663 90 506.572 90 505.37V495.563C90 494.36 90.6497 493.269 91.5921 492.523C95.0559 489.778 97.2783 485.535 97.2783 480.772C97.2782 476.01 95.0561 471.766 91.5922 469.021C90.6498 468.275 90 467.183 90 465.981V456.174C90 454.972 90.6497 453.881 91.5921 453.134C95.0559 450.389 97.2783 446.146 97.2783 441.384C97.2783 436.621 95.0561 432.377 91.5922 429.633C90.6498 428.886 90 427.795 90 426.592V416.785C90 415.583 90.6497 414.492 91.5921 413.745C95.0559 411.001 97.2783 406.758 97.2783 401.995C97.2783 397.232 95.0561 392.989 91.5921 390.244C90.6498 389.497 90 388.406 90 387.204V90.7376C90 88.846 91.5335 87.3125 93.4251 87.3125H169.934Z" fill="#D8E2D4" fill-opacity="0.1"/>
<path d="M169.934 87.3125C171.177 87.3125 172.297 88.0054 173.042 89.0005C175.774 92.6537 180.134 95.0185 185.047 95.0186C189.96 95.0186 194.32 92.6539 197.053 89.0006C197.797 88.0054 198.918 87.3125 200.161 87.3125H208.466C209.709 87.3125 210.83 88.0054 211.574 89.0006C214.306 92.6537 218.666 95.0184 223.579 95.0186C228.492 95.0186 232.853 92.6538 235.585 89.0006C236.33 88.0054 237.45 87.3125 238.693 87.3125H246.999C248.241 87.3125 249.362 88.0054 250.106 89.0006C252.839 92.6538 257.199 95.0186 262.112 95.0186C267.025 95.0184 271.385 92.6537 274.118 89.0006C274.862 88.0054 275.982 87.3125 277.225 87.3125H285.531C286.773 87.3125 287.894 88.0054 288.638 89.0006C291.371 92.6539 295.731 95.0186 300.645 95.0186C305.558 95.0185 309.918 92.6539 312.651 89.0006C313.395 88.0054 314.516 87.3125 315.758 87.3125H324.064C325.307 87.3125 326.427 88.0054 327.172 89.0006C329.904 92.6537 334.264 95.0185 339.177 95.0186C344.09 95.0186 348.45 92.6539 351.183 89.0006C351.927 88.0054 353.048 87.3125 354.291 87.3125H362.596C363.839 87.3125 364.959 88.0054 365.704 89.0006C368.436 92.6539 372.797 95.0186 377.71 95.0186C382.623 95.0185 386.983 92.6537 389.715 89.0006C390.46 88.0054 391.58 87.3125 392.823 87.3125H401.129C402.372 87.3125 403.493 88.0054 404.237 89.0005C406.969 92.6537 411.329 95.0185 416.242 95.0186C421.155 95.0186 425.516 92.6539 428.248 89.0006C428.993 88.0054 430.113 87.3125 431.356 87.3125H507.864C509.756 87.3125 511.289 88.846 511.289 90.7376V387.204C511.289 388.406 510.639 389.497 509.697 390.244C506.233 392.989 504.011 397.232 504.011 401.995C504.011 406.758 506.233 411.001 509.697 413.745C510.639 414.492 511.289 415.583 511.289 416.785V426.592C511.289 427.795 510.639 428.886 509.697 429.633C506.233 432.377 504.011 436.621 504.011 441.384C504.011 446.146 506.233 450.389 509.697 453.134C510.639 453.881 511.289 454.972 511.289 456.174V465.981C511.289 467.183 510.639 468.275 509.697 469.021C506.233 471.766 504.011 476.01 504.011 480.772C504.011 485.535 506.233 489.778 509.697 492.523C510.639 493.269 511.289 494.36 511.289 495.563V505.37C511.289 506.572 510.639 507.663 509.697 508.41C506.233 511.155 504.011 515.398 504.011 520.161C504.011 524.924 506.233 529.168 509.697 531.912C510.639 532.659 511.289 533.75 511.289 534.952V544.759C511.289 545.962 510.639 547.053 509.697 547.8C506.233 550.544 504.011 554.788 504.011 559.551C504.011 564.313 506.233 568.556 509.697 571.301C510.639 572.048 511.289 573.139 511.289 574.341V584.148C511.289 585.35 510.639 586.442 509.697 587.188C506.233 589.933 504.011 594.177 504.011 598.939C504.011 603.702 506.233 607.945 509.697 610.69C510.639 611.436 511.289 612.527 511.289 613.73V702.977C511.289 704.869 509.756 706.402 507.864 706.402H431.356C430.113 706.402 428.993 705.709 428.248 704.714C425.516 701.061 421.155 698.695 416.242 698.695C411.329 698.695 406.969 701.061 404.237 704.714C403.493 705.709 402.372 706.402 401.129 706.402H392.823C391.58 706.402 390.46 705.709 389.715 704.714C386.983 701.061 382.623 698.695 377.71 698.695C372.797 698.695 368.436 701.061 365.704 704.714C364.959 705.709 363.839 706.402 362.596 706.402H354.291C353.048 706.402 351.927 705.709 351.183 704.714C348.45 701.061 344.09 698.695 339.177 698.695C334.264 698.695 329.904 701.061 327.172 704.714C326.427 705.709 325.307 706.402 324.064 706.402H315.758C314.516 706.402 313.395 705.709 312.651 704.714C309.918 701.061 305.558 698.695 300.645 698.695C295.731 698.695 291.371 701.061 288.638 704.714C287.894 705.709 286.773 706.402 285.531 706.402H277.225C275.982 706.402 274.862 705.709 274.118 704.714C271.385 701.061 267.025 698.695 262.112 698.695C257.199 698.695 252.839 701.061 250.106 704.714C249.362 705.709 248.241 706.402 246.999 706.402H238.693C237.45 706.402 236.33 705.709 235.585 704.714C232.853 701.061 228.492 698.695 223.579 698.695C218.666 698.695 214.306 701.061 211.574 704.714C210.83 705.709 209.709 706.402 208.466 706.402H200.161C198.918 706.402 197.797 705.709 197.053 704.714C194.321 701.061 189.96 698.695 185.047 698.695C180.134 698.695 175.774 701.061 173.042 704.714C172.297 705.709 171.177 706.402 169.934 706.402H93.4251C91.5335 706.402 90 704.869 90 702.977V613.73C90 612.527 90.6497 611.436 91.5921 610.69C95.0559 607.945 97.2783 603.702 97.2783 598.939C97.2783 594.177 95.0561 589.933 91.5921 587.188C90.6498 586.442 90 585.35 90 584.148V574.341C90 573.139 90.6498 572.048 91.5921 571.301C95.0559 568.556 97.2782 564.313 97.2783 559.551C97.2783 554.788 95.056 550.544 91.5921 547.8C90.6498 547.053 90 545.962 90 544.759V534.952C90 533.75 90.6498 532.659 91.5921 531.912C95.056 529.167 97.2783 524.924 97.2783 520.161C97.2782 515.398 95.0561 511.155 91.5922 508.41C90.6498 507.663 90 506.572 90 505.37V495.563C90 494.36 90.6497 493.269 91.5921 492.523C95.0559 489.778 97.2783 485.535 97.2783 480.772C97.2782 476.01 95.0561 471.766 91.5922 469.021C90.6498 468.275 90 467.183 90 465.981V456.174C90 454.972 90.6497 453.881 91.5921 453.134C95.0559 450.389 97.2783 446.146 97.2783 441.384C97.2783 436.621 95.0561 432.377 91.5922 429.633C90.6498 428.886 90 427.795 90 426.592V416.785C90 415.583 90.6497 414.492 91.5921 413.745C95.0559 411.001 97.2783 406.758 97.2783 401.995C97.2783 397.232 95.0561 392.989 91.5921 390.244C90.6498 389.497 90 388.406 90 387.204V90.7376C90 88.846 91.5335 87.3125 93.4251 87.3125H169.934Z" fill="#283322"/>
<path d="M322.4 131.388C322.992 131.332 323.653 131.247 324.385 131.135C325.118 130.994 325.85 130.839 326.582 130.67C327.314 130.501 327.989 130.332 328.609 130.163C329.228 129.966 329.721 129.783 330.087 129.614C330.031 130.093 329.975 130.529 329.918 130.924C329.89 131.318 329.862 131.74 329.834 132.191C329.834 132.641 329.82 133.134 329.792 133.669C329.792 134.204 329.792 134.837 329.792 135.569V144.101L331.565 145.452L335.62 143.678V137.09C335.62 136.133 335.592 135.344 335.535 134.725C335.507 134.105 335.423 133.612 335.282 133.246C335.141 132.88 334.944 132.613 334.691 132.444C334.466 132.247 334.142 132.092 333.719 131.979V131.43C335.071 131.346 336.394 131.149 337.689 130.839C339.013 130.529 340.153 130.135 341.11 129.656V139.624C341.11 140.947 341.139 142.031 341.195 142.876C341.251 143.693 341.35 144.354 341.491 144.861C341.631 145.368 341.814 145.734 342.04 145.959C342.293 146.184 342.617 146.339 343.011 146.424V146.888C342.645 147.057 342.237 147.311 341.786 147.649C341.336 147.986 340.899 148.367 340.477 148.789C340.055 149.211 339.674 149.648 339.337 150.098C338.999 150.521 338.745 150.915 338.576 151.281C337.647 150.492 336.971 149.76 336.549 149.085C336.155 148.409 335.887 147.578 335.747 146.593C334.902 147.015 334.156 147.409 333.508 147.775C332.889 148.141 332.312 148.507 331.777 148.873C331.27 149.239 330.791 149.62 330.341 150.014C329.918 150.408 329.482 150.83 329.031 151.281C328.468 150.774 327.961 150.352 327.511 150.014C327.088 149.648 326.666 149.324 326.244 149.042C325.85 148.761 325.441 148.507 325.019 148.282C324.625 148.029 324.174 147.761 323.667 147.48C323.78 147.311 323.879 146.931 323.963 146.339C324.076 145.748 324.174 145.03 324.259 144.185C324.343 143.341 324.4 142.44 324.428 141.482C324.484 140.497 324.512 139.554 324.512 138.653C324.512 137.639 324.47 136.766 324.385 136.034C324.329 135.274 324.217 134.626 324.048 134.091C323.879 133.556 323.653 133.12 323.372 132.782C323.118 132.416 322.781 132.106 322.358 131.853L322.4 131.388Z" fill="#BF994C"/>
<path d="M297.228 150.098C297.65 149.845 298.016 149.366 298.326 148.662C298.664 147.958 298.945 147.156 299.17 146.255C299.424 145.354 299.607 144.425 299.719 143.467C299.832 142.482 299.888 141.581 299.888 140.764C299.888 139.497 299.748 138.287 299.466 137.132C299.213 135.978 298.847 135.105 298.368 134.514C298.818 134.063 299.184 133.472 299.466 132.74C299.776 131.98 300.015 131.177 300.184 130.332C300.353 129.46 300.466 128.573 300.522 127.672C300.578 126.771 300.606 125.926 300.606 125.137C300.606 124.49 300.592 123.927 300.564 123.448C300.536 122.969 300.508 122.603 300.48 122.35C299.832 122.125 299.156 121.66 298.452 120.956C297.777 120.252 297.27 119.492 296.932 118.676C298.734 118.873 300.437 119.013 302.042 119.098C303.675 119.154 305.21 119.182 306.646 119.182C309.715 119.182 312.193 119.084 314.079 118.887C315.966 118.69 317.458 118.591 318.556 118.591C318.781 118.591 318.979 118.605 319.147 118.633C319.316 118.633 319.471 118.647 319.612 118.676C319.443 119.013 319.26 119.647 319.063 120.576C318.894 121.505 318.725 122.519 318.556 123.617C318.387 124.715 318.232 125.785 318.092 126.827C317.979 127.869 317.894 128.657 317.838 129.192L317.543 129.319C316.557 128.587 315.839 127.784 315.389 126.911C314.966 126.01 314.642 124.912 314.417 123.617C314.023 123.307 313.53 123.11 312.939 123.026C312.348 122.941 311.601 122.899 310.7 122.899C309.968 122.899 309.264 122.913 308.589 122.941C307.913 122.969 307.378 122.983 306.984 122.983C306.843 123.8 306.716 124.743 306.604 125.813C306.519 126.883 306.435 128.024 306.35 129.234C306.294 130.445 306.238 131.712 306.181 133.035C306.153 134.331 306.139 135.626 306.139 136.921C306.139 138.695 306.153 140.384 306.181 141.989C306.238 143.566 306.322 144.946 306.435 146.128L313.572 146.846C313.967 145.101 314.656 143.552 315.642 142.2C316.656 140.849 317.74 139.54 318.894 138.273L319.147 138.357C319.063 139.005 319.007 139.652 318.979 140.3C318.95 140.919 318.936 141.525 318.936 142.116C318.936 143.58 319.007 144.903 319.147 146.086C319.288 147.269 319.457 148.156 319.654 148.747C319.176 148.803 318.697 148.888 318.218 149C317.768 149.085 317.275 149.24 316.74 149.465C316.205 149.69 315.628 150 315.008 150.394C314.417 150.788 313.755 151.295 313.023 151.914C310.658 151.211 308.321 150.676 306.012 150.309C303.704 149.972 301.62 149.803 299.762 149.803C298.861 149.803 298.03 149.943 297.27 150.225L297.228 150.098Z" fill="#BF994C"/>
<path d="M286.724 154.026C286.893 153.463 287.048 152.759 287.189 151.914C287.329 151.098 287.442 150.281 287.526 149.465C287.611 148.62 287.681 147.846 287.738 147.142C287.794 146.438 287.822 145.931 287.822 145.621C287.822 144.016 287.808 142.412 287.78 140.807C287.78 139.202 287.78 137.597 287.78 135.992L287.231 135.401L282.036 137.723V146.382C282.036 148.155 282.416 149.183 283.176 149.465V150.098H275.405V149.465C275.743 149.324 276.01 149.042 276.207 148.62C276.433 148.17 276.545 147.55 276.545 146.762V124.546C276.545 123.842 276.531 123.209 276.503 122.646C276.475 122.082 276.405 121.562 276.292 121.083C276.207 120.604 276.081 120.14 275.912 119.689C275.743 119.239 275.532 118.774 275.278 118.295C275.841 118.492 276.503 118.591 277.263 118.591C278.193 118.591 279.164 118.436 280.178 118.126C281.219 117.817 282.332 117.38 283.514 116.817C282.951 117.493 282.557 118.394 282.332 119.52C282.134 120.646 282.036 121.942 282.036 123.406V134.809C283.247 134.021 284.331 133.232 285.288 132.444C286.245 131.656 287.231 130.727 288.244 129.657C288.723 130.107 289.16 130.515 289.554 130.881C289.948 131.219 290.342 131.529 290.736 131.811C291.159 132.092 291.595 132.374 292.046 132.655C292.496 132.909 293.017 133.176 293.608 133.458C293.496 133.852 293.397 134.274 293.313 134.725C293.256 135.147 293.2 135.696 293.144 136.372C293.116 137.048 293.087 137.878 293.059 138.864C293.031 139.849 293.017 141.074 293.017 142.538C293.017 143.777 293.017 144.805 293.017 145.621C293.045 146.41 293.073 147.057 293.101 147.564C293.13 148.071 293.172 148.493 293.228 148.831C293.284 149.141 293.341 149.437 293.397 149.718C292.834 149.915 292.257 150.183 291.665 150.521C291.102 150.858 290.525 151.239 289.934 151.661C289.371 152.083 288.836 152.52 288.329 152.97C287.822 153.421 287.372 153.857 286.977 154.28L286.724 154.026Z" fill="#BF994C"/>
<path d="M270.918 149.085C270.918 152.66 271.045 155.04 271.298 156.222C270.51 156.222 269.651 156.335 268.722 156.56C267.793 156.814 266.85 157.151 265.892 157.574C264.963 157.996 264.048 158.489 263.147 159.052C262.246 159.643 261.444 160.277 260.74 160.953C259.135 159.77 257.642 158.911 256.263 158.376C254.883 157.841 253.433 157.574 251.913 157.574C252.138 156.391 252.49 155.307 252.968 154.322C253.475 153.364 254.053 152.576 254.7 151.957C255.01 151.985 255.488 152.125 256.136 152.379C256.812 152.66 257.544 153.012 258.332 153.435C259.121 153.857 259.895 154.308 260.655 154.786C261.444 155.265 262.119 155.73 262.683 156.18L265.85 155.166C265.794 154.8 265.737 154.406 265.681 153.984C265.653 153.561 265.625 153.041 265.597 152.421C265.569 151.802 265.54 151.041 265.512 150.14C265.484 149.268 265.456 148.198 265.428 146.931C264.893 147.325 264.287 147.705 263.612 148.071C262.964 148.437 262.288 148.775 261.584 149.085C260.88 149.394 260.162 149.676 259.43 149.929C258.727 150.155 258.051 150.338 257.403 150.478C256.023 149.07 254.489 148.113 252.8 147.606C252.912 147.212 253.011 146.818 253.095 146.424C253.18 146.001 253.236 145.551 253.264 145.072C253.32 144.565 253.363 144.002 253.391 143.383C253.419 142.735 253.433 141.975 253.433 141.102C253.433 138.821 253.377 137.062 253.264 135.823C253.151 134.584 252.968 133.697 252.715 133.162C253.363 133.049 254.067 132.88 254.827 132.655C255.587 132.43 256.347 132.162 257.107 131.853C257.868 131.543 258.614 131.191 259.346 130.797C260.078 130.403 260.74 129.994 261.331 129.572C263.02 130.079 264.372 130.445 265.386 130.67C266.427 130.867 267.314 130.966 268.046 130.966C268.694 130.966 269.398 130.909 270.158 130.797C270.946 130.656 271.622 130.487 272.185 130.29C271.96 130.741 271.763 131.275 271.594 131.895C271.425 132.514 271.284 133.275 271.172 134.176C271.087 135.077 271.017 136.147 270.961 137.385C270.932 138.624 270.918 140.089 270.918 141.778V149.085ZM261.458 133.753C261.148 134.063 260.754 134.401 260.275 134.767C259.796 135.133 259.36 135.429 258.966 135.654C259.05 136.47 259.093 138.005 259.093 140.257C259.093 141.44 259.078 142.44 259.05 143.256C259.022 144.045 258.966 144.805 258.881 145.537C259.388 145.509 259.951 145.438 260.571 145.326C261.19 145.213 261.796 145.072 262.387 144.903C263.006 144.734 263.584 144.551 264.118 144.354C264.653 144.129 265.09 143.904 265.428 143.678V141.989C265.428 140.131 265.456 138.61 265.512 137.428C265.569 136.245 265.667 135.302 265.808 134.598C265.526 134.598 265.188 134.584 264.794 134.556C264.428 134.499 264.048 134.429 263.654 134.345C263.26 134.26 262.866 134.176 262.471 134.091C262.077 133.979 261.739 133.866 261.458 133.753Z" fill="#BF994C"/>
<path d="M248.337 130.881V146.382C248.337 148.156 248.718 149.183 249.478 149.465V150.098C248.577 150.239 247.732 150.408 246.944 150.605C246.155 150.802 245.339 151.027 244.494 151.281H244.283C243.326 149.986 242.847 148.465 242.847 146.72V132.022L241.284 131.346V130.881C242.27 130.741 243.34 130.558 244.494 130.332C245.648 130.079 246.676 129.84 247.577 129.614L248.337 130.881ZM241.664 122.646C242.143 121.829 242.72 121.027 243.396 120.238C244.1 119.422 244.874 118.788 245.719 118.338C245.888 118.563 246.141 118.83 246.479 119.14C246.845 119.45 247.225 119.76 247.619 120.069C248.042 120.379 248.436 120.675 248.802 120.956C249.196 121.21 249.492 121.393 249.689 121.505C248.732 122.181 247.915 122.843 247.239 123.49C246.592 124.11 246.029 124.898 245.55 125.855C245.381 125.658 245.113 125.419 244.747 125.137C244.41 124.828 244.044 124.518 243.649 124.208C243.255 123.899 242.875 123.603 242.509 123.321C242.143 123.04 241.861 122.815 241.664 122.646Z" fill="#BF994C"/>
<path d="M221.428 118.887C221.006 119.281 220.64 119.816 220.33 120.492C220.048 121.139 219.809 121.857 219.612 122.646C219.443 123.406 219.316 124.208 219.232 125.053C219.147 125.87 219.105 126.658 219.105 127.418V132.782C220.034 132.895 221.006 132.965 222.019 132.993C223.033 132.993 224.075 132.993 225.145 132.993C225.905 132.993 226.609 132.979 227.256 132.951C227.904 132.923 228.636 132.881 229.453 132.824V126.742C229.453 125.363 229.354 124.124 229.157 123.026C228.96 121.899 228.58 120.661 228.017 119.309C229.03 119.478 230.086 119.562 231.184 119.562C232.367 119.562 233.578 119.492 234.817 119.351C236.084 119.211 237.365 119.056 238.66 118.887C237.9 119.337 237.308 119.929 236.886 120.661C236.464 121.364 236.14 122.139 235.915 122.984C235.718 123.828 235.591 124.687 235.535 125.56C235.506 126.433 235.492 127.249 235.492 128.009C235.492 128.657 235.52 129.305 235.577 129.952C235.633 130.572 235.732 131.177 235.872 131.768C236.041 132.332 236.253 132.852 236.506 133.331C236.788 133.81 237.139 134.204 237.562 134.514C237.055 135.415 236.59 136.541 236.168 137.892C235.774 139.244 235.577 140.595 235.577 141.947C235.577 142.679 235.591 143.397 235.619 144.101C235.675 144.777 235.774 145.424 235.915 146.044C236.084 146.635 236.309 147.184 236.59 147.691C236.9 148.17 237.294 148.564 237.773 148.874C236.45 149.352 235.45 149.972 234.774 150.732C234.099 151.492 233.535 152.238 233.085 152.97C232.944 152.604 232.705 152.21 232.367 151.788C232.029 151.394 231.635 151.013 231.184 150.647C230.734 150.281 230.227 149.943 229.664 149.634C229.129 149.324 228.566 149.071 227.974 148.874C228.341 148.479 228.622 147.973 228.819 147.353C229.016 146.705 229.157 145.987 229.242 145.199C229.354 144.411 229.41 143.566 229.41 142.665C229.439 141.764 229.453 140.849 229.453 139.92V138.146C228.636 138.061 227.918 138.005 227.299 137.977C226.707 137.921 226.074 137.892 225.398 137.892C224.131 137.892 222.991 137.921 221.977 137.977C220.992 138.033 220.062 138.118 219.19 138.23V140.469C219.19 142.271 219.359 143.988 219.696 145.621C220.034 147.226 220.752 148.803 221.85 150.352C220.583 150.155 219.443 150.028 218.429 149.972C217.444 149.887 216.571 149.845 215.811 149.845C214.544 149.845 213.446 149.887 212.516 149.972C211.587 150.056 210.658 150.169 209.729 150.31C210.32 149.943 210.869 149.465 211.376 148.874C211.883 148.282 212.319 147.621 212.685 146.888C213.051 146.156 213.333 145.382 213.53 144.566C213.755 143.749 213.868 142.932 213.868 142.116C213.868 140.68 213.699 139.286 213.361 137.935C213.023 136.555 212.488 135.415 211.756 134.514C212.545 133.049 213.08 131.712 213.361 130.501C213.671 129.291 213.826 128.038 213.826 126.742C213.826 125.954 213.784 125.109 213.699 124.208C212.685 123.955 211.742 123.406 210.869 122.561C210.025 121.716 209.504 120.478 209.307 118.844C210.489 119.098 211.587 119.281 212.601 119.394C213.615 119.506 214.572 119.562 215.473 119.562C216.543 119.562 217.542 119.492 218.472 119.351C219.429 119.182 220.414 119.027 221.428 118.887Z" fill="#BF994C"/>
<path d="M347.464 126.045C349.712 127.959 353.261 130.925 357.365 134.144C357.341 134.225 357.319 134.306 357.298 134.387L353.286 133.88V143.214C353.286 144.678 353.638 145.776 354.341 146.508C355.073 147.24 355.975 147.634 357.044 147.69V148.282C356.566 148.451 356.059 148.662 355.524 148.915C354.989 149.168 354.468 149.436 353.961 149.718C353.455 149.971 352.975 150.239 352.525 150.521C352.075 150.802 351.723 151.055 351.469 151.28C350.822 150.886 350.16 150.507 349.485 150.141C348.809 149.775 348.246 149.478 347.795 149.253V133.542H344.29V133.077C345.528 132.598 346.697 131.866 347.795 130.881V129.529C347.795 129.304 347.767 128.952 347.71 128.474C347.682 127.967 347.64 127.46 347.583 126.953C347.549 126.63 347.509 126.327 347.464 126.045ZM354.003 122.266C353.891 122.547 353.792 122.983 353.708 123.574C353.664 123.879 353.621 124.195 353.578 124.522C353.076 124.102 352.572 123.672 352.066 123.23C352.69 122.942 353.337 122.622 354.003 122.266Z" fill="#BF994C"/>
<path d="M385.019 109.012C385.645 111.778 384.037 114.561 381.329 115.404L363.849 120.837C362.973 121.109 362.018 120.866 361.379 120.209L360.967 119.785C360.297 119.096 359.284 118.868 358.384 119.201L350.716 122.037C374.924 143.849 394.223 141.725 388.53 149.522C382.837 157.318 344.911 123.844 344.911 123.844C336.613 127.807 337.805 123.736 337.805 123.736C339.732 125.114 343.609 121.928 343.609 121.928C343.356 121.846 343.013 121.458 342.685 121.008C342.044 120.13 342.244 118.896 343.122 118.254C343.986 117.621 345.162 117.625 346.022 118.266L347.445 119.324C349.199 117.945 376.416 109.904 383.167 107.923C383.983 107.684 384.832 108.183 385.019 109.012ZM361.759 136.826C361.759 136.826 361.866 136.904 362.067 137.048C362.27 137.192 362.566 137.404 362.947 137.667C363.328 137.931 363.79 138.251 364.327 138.61C364.862 138.971 365.467 139.376 366.132 139.809C366.796 140.245 367.518 140.712 368.288 141.196C369.058 141.681 369.87 142.193 370.72 142.705C371.145 142.96 371.576 143.221 372.014 143.486C372.452 143.75 372.898 144.012 373.349 144.273C374.251 144.795 375.173 145.318 376.1 145.834C377.031 146.339 377.968 146.838 378.898 147.313C379.364 147.55 379.828 147.782 380.293 147.999C380.756 148.221 381.218 148.429 381.674 148.634C381.904 148.733 382.132 148.83 382.357 148.928C382.585 149.019 382.813 149.109 383.036 149.198C383.262 149.282 383.49 149.361 383.712 149.441C383.939 149.516 384.171 149.586 384.394 149.654C385.279 149.892 386.196 150.024 387.035 149.838C387.451 149.743 387.842 149.542 388.119 149.251C388.398 148.962 388.558 148.613 388.641 148.286C388.723 147.957 388.748 147.643 388.74 147.357C388.734 147.072 388.704 146.812 388.667 146.581C388.592 146.118 388.484 145.767 388.41 145.53C388.332 145.294 388.28 145.172 388.28 145.172C388.28 145.172 388.316 145.3 388.368 145.542C388.419 145.783 388.483 146.141 388.518 146.599C388.534 146.827 388.54 147.081 388.522 147.352C388.503 147.623 388.461 147.915 388.364 148.205C388.267 148.493 388.106 148.777 387.864 148.993C387.624 149.21 387.306 149.357 386.946 149.416C386.585 149.478 386.19 149.463 385.787 149.406C385.686 149.389 385.584 149.374 385.481 149.357C385.379 149.335 385.275 149.312 385.171 149.289L385.092 149.272L385.053 149.263H385.048L385.043 149.26L385.023 149.255C384.97 149.239 384.916 149.224 384.863 149.208C384.756 149.177 384.647 149.145 384.537 149.114C384.329 149.04 384.123 148.968 383.911 148.889C383.698 148.803 383.482 148.717 383.265 148.627C383.049 148.533 382.831 148.437 382.61 148.34C382.39 148.239 382.169 148.137 381.946 148.034C381.056 147.615 380.151 147.145 379.229 146.67C378.309 146.19 377.382 145.687 376.46 145.176C375.535 144.67 374.612 144.157 373.708 143.644C372.804 143.131 371.915 142.626 371.054 142.136C369.335 141.15 367.73 140.232 366.355 139.444C365.667 139.05 365.036 138.689 364.477 138.369C363.916 138.05 363.428 137.773 363.025 137.543C362.622 137.316 362.304 137.137 362.088 137.015C361.871 136.893 361.756 136.829 361.756 136.829L361.759 136.826ZM345.906 120.565C345.362 120.386 344.777 120.682 344.597 121.225C344.418 121.769 344.713 122.355 345.257 122.534C345.801 122.714 346.387 122.418 346.566 121.874C346.746 121.33 346.45 120.745 345.906 120.565ZM384.335 109.912C384.337 110.099 384.328 110.288 384.313 110.474C384.297 110.661 384.276 110.847 384.249 111.032C384.236 111.125 384.22 111.216 384.202 111.308C384.183 111.4 384.163 111.49 384.141 111.581C384.118 111.671 384.094 111.76 384.066 111.85C384.04 111.939 384.008 112.025 383.977 112.112C383.943 112.198 383.908 112.284 383.868 112.366C383.85 112.409 383.828 112.449 383.807 112.489C383.787 112.53 383.766 112.57 383.742 112.609C383.696 112.689 383.645 112.763 383.593 112.838C383.537 112.909 383.483 112.981 383.42 113.046C383.39 113.08 383.358 113.111 383.326 113.14C383.292 113.17 383.261 113.202 383.225 113.228C383.19 113.255 383.155 113.284 383.119 113.308L383.006 113.379C382.929 113.421 382.851 113.463 382.767 113.492C382.687 113.527 382.599 113.545 382.516 113.569L382.506 113.572L380.056 114.331L377.61 115.107L375.169 115.896L372.733 116.697C371.92 116.962 371.111 117.24 370.3 117.511C369.488 117.781 368.681 118.063 367.871 118.339L366.659 118.76C366.255 118.9 365.852 119.042 365.448 119.187L364.24 119.618C363.837 119.76 363.436 119.909 363.034 120.056C363.445 119.939 363.857 119.821 364.266 119.698L365.496 119.333C365.907 119.213 366.317 119.089 366.725 118.963L367.952 118.589C368.769 118.333 369.587 118.083 370.401 117.824C371.216 117.564 372.032 117.309 372.845 117.045L375.286 116.254L377.722 115.45L380.154 114.632L382.58 113.799L382.571 113.802C382.667 113.771 382.762 113.746 382.853 113.702C382.946 113.666 383.032 113.614 383.118 113.564L383.24 113.479C383.28 113.449 383.317 113.415 383.355 113.384C383.394 113.353 383.428 113.317 383.463 113.282C383.497 113.247 383.532 113.213 383.562 113.174C383.628 113.1 383.683 113.02 383.739 112.94C383.791 112.857 383.841 112.775 383.884 112.688C383.907 112.645 383.928 112.601 383.947 112.558C383.966 112.514 383.987 112.47 384.004 112.426C384.04 112.337 384.072 112.246 384.102 112.156C384.13 112.064 384.158 111.974 384.18 111.881C384.204 111.789 384.222 111.696 384.242 111.603C384.26 111.51 384.275 111.415 384.288 111.322C384.301 111.228 384.313 111.135 384.322 111.041C384.34 110.852 384.35 110.664 384.351 110.475C384.351 110.286 384.348 110.098 384.332 109.91L384.335 109.912Z" fill="#FFEDCA"/>
</g>
<defs>
<clipPath id="clip0_2657_353">
<rect width="600" height="785.714" rx="10" fill="white"/>
</clipPath>
<clipPath id="clip1_2657_353">
<rect width="1082.86" height="1082.86" fill="white" transform="translate(-265.714 -178.095)"/>
</clipPath>
</defs>
</svg>
