<svg width="352" height="104" viewBox="0 0 352 104" fill="none" xmlns="http://www.w3.org/2000/svg">
<path d="M220.882 45.946C222.037 45.836 223.329 45.671 224.759 45.451C226.189 45.1761 227.618 44.8736 229.048 44.5437C230.478 44.2137 231.798 43.8837 233.008 43.5538C234.217 43.1688 235.18 42.8114 235.895 42.4814C235.785 43.4163 235.675 44.2687 235.565 45.0386C235.51 45.8085 235.455 46.6334 235.4 47.5132C235.4 48.3931 235.372 49.3555 235.317 50.4003C235.317 51.4452 235.317 52.6825 235.317 54.1123V70.7749L238.782 73.4146L246.701 69.95V57.0819C246.701 55.2121 246.646 53.6724 246.536 52.4625C246.481 51.2527 246.316 50.2903 246.041 49.5754C245.766 48.8605 245.381 48.3381 244.886 48.0082C244.446 47.6232 243.814 47.3208 242.989 47.1008V46.0284C245.628 45.8635 248.213 45.4785 250.743 44.8736C253.327 44.2687 255.554 43.4988 257.424 42.5639V62.0312C257.424 64.6158 257.479 66.733 257.589 68.3828C257.699 69.9775 257.892 71.2699 258.167 72.2597C258.441 73.2496 258.799 73.9645 259.239 74.4044C259.734 74.8444 260.366 75.1468 261.136 75.3118V76.2192C260.421 76.5491 259.624 77.044 258.744 77.7039C257.864 78.3639 257.012 79.1063 256.187 79.9311C255.362 80.756 254.62 81.6084 253.96 82.4883C253.3 83.3132 252.805 84.083 252.475 84.7979C250.66 83.2582 249.34 81.8284 248.515 80.5086C247.746 79.1887 247.223 77.5665 246.948 75.6417C245.298 76.4666 243.841 77.2365 242.576 77.9514C241.366 78.6663 240.239 79.3812 239.194 80.0961C238.204 80.811 237.269 81.5534 236.39 82.3233C235.565 83.0932 234.712 83.9181 233.832 84.7979C232.733 83.8081 231.743 82.9832 230.863 82.3233C230.038 81.6084 229.213 80.976 228.388 80.4261C227.618 79.8761 226.821 79.3812 225.996 78.9413C225.226 78.4463 224.346 77.9239 223.356 77.374C223.576 77.044 223.769 76.3017 223.934 75.1468C224.154 73.992 224.346 72.5897 224.511 70.9399C224.676 69.2901 224.786 67.5304 224.841 65.6607C224.951 63.7359 225.006 61.8937 225.006 60.1339C225.006 58.1542 224.924 56.4495 224.759 55.0197C224.649 53.5349 224.429 52.2701 224.099 51.2252C223.769 50.1804 223.329 49.328 222.779 48.6681C222.284 47.9532 221.624 47.3483 220.799 46.8533L220.882 45.946Z" fill="#425539"/>
<path d="M171.717 82.4884C172.542 81.9935 173.257 81.0586 173.862 79.6838C174.522 78.309 175.072 76.7417 175.512 74.982C176.006 73.2222 176.364 71.4075 176.584 69.5378C176.804 67.613 176.914 65.8533 176.914 64.2585C176.914 61.7839 176.639 59.4192 176.089 57.1645C175.594 54.9098 174.879 53.2051 173.944 52.0502C174.824 51.1704 175.539 50.0155 176.089 48.5857C176.694 47.1009 177.161 45.5337 177.491 43.8839C177.821 42.1791 178.041 40.4469 178.151 38.6871C178.261 36.9274 178.316 35.2776 178.316 33.7378C178.316 32.473 178.289 31.3732 178.234 30.4383C178.179 29.5034 178.124 28.7885 178.069 28.2936C176.804 27.8537 175.484 26.9463 174.109 25.5715C172.789 24.1967 171.8 22.7119 171.14 21.1171C174.659 21.5021 177.986 21.777 181.121 21.942C184.31 22.052 187.307 22.107 190.112 22.107C196.106 22.107 200.945 21.9145 204.63 21.5296C208.314 21.1446 211.229 20.9521 213.374 20.9521C213.814 20.9521 214.199 20.9796 214.528 21.0346C214.858 21.0346 215.161 21.0621 215.436 21.1171C215.106 21.777 214.748 23.0144 214.364 24.8291C214.034 26.6438 213.704 28.6236 213.374 30.7683C213.044 32.913 212.741 35.0027 212.466 37.0374C212.246 39.0721 212.081 40.6119 211.971 41.6567L211.394 41.9042C209.469 40.4744 208.067 38.9071 207.187 37.2023C206.362 35.4426 205.73 33.2979 205.29 30.7683C204.52 30.1633 203.558 29.7784 202.403 29.6134C201.248 29.4484 199.791 29.366 198.031 29.366C196.601 29.366 195.226 29.3935 193.906 29.4484C192.587 29.5034 191.542 29.5309 190.772 29.5309C190.497 31.1257 190.249 32.9679 190.029 35.0576C189.864 37.1474 189.7 39.3745 189.535 41.7392C189.425 44.1039 189.315 46.5785 189.205 49.1631C189.15 51.6928 189.122 54.2224 189.122 56.7521C189.122 60.2166 189.15 63.5161 189.205 66.6507C189.315 69.7302 189.48 72.4248 189.7 74.7345L203.64 76.1368C204.41 72.7273 205.757 69.7027 207.682 67.0631C209.662 64.4235 211.779 61.8663 214.034 59.3917L214.528 59.5567C214.364 60.8215 214.254 62.0863 214.199 63.3511C214.144 64.561 214.116 65.7433 214.116 66.8981C214.116 69.7577 214.254 72.3424 214.528 74.652C214.803 76.9617 215.133 78.694 215.518 79.8488C214.583 79.9588 213.649 80.1238 212.714 80.3437C211.834 80.5087 210.872 80.8112 209.827 81.2511C208.782 81.691 207.654 82.2959 206.445 83.0658C205.29 83.8357 203.997 84.8256 202.568 86.0354C197.948 84.6606 193.384 83.6158 188.875 82.9009C184.365 82.241 180.296 81.911 176.666 81.911C174.907 81.911 173.284 82.186 171.8 82.7359L171.717 82.4884Z" fill="#425539"/>
<path d="M151.202 90.1597C151.532 89.0599 151.835 87.6851 152.11 86.0353C152.385 84.4405 152.605 82.8458 152.77 81.251C152.935 79.6012 153.072 78.0889 153.182 76.7141C153.292 75.3393 153.347 74.3495 153.347 73.7446C153.347 70.61 153.32 67.4755 153.265 64.3409C153.265 61.2063 153.265 58.0718 153.265 54.9372L152.192 53.7824L142.046 58.3193V75.2294C142.046 78.6939 142.789 80.7011 144.273 81.251V82.4883H129.096V81.251C129.756 80.976 130.278 80.4261 130.663 79.6012C131.103 78.7214 131.323 77.5115 131.323 75.9718V32.5829C131.323 31.2081 131.295 29.9708 131.24 28.8709C131.185 27.7711 131.048 26.7537 130.828 25.8189C130.663 24.884 130.415 23.9766 130.085 23.0968C129.756 22.2169 129.343 21.3095 128.848 20.3746C129.948 20.7596 131.24 20.9521 132.725 20.9521C134.54 20.9521 136.437 20.6496 138.417 20.0447C140.451 19.4398 142.624 18.5874 144.933 17.4875C143.834 18.8074 143.064 20.5671 142.624 22.7668C142.239 24.9665 142.046 27.4961 142.046 30.3557V52.6276C144.411 51.0878 146.528 49.548 148.398 48.0082C150.268 46.4684 152.192 44.6537 154.172 42.564C155.107 43.4439 155.959 44.2413 156.729 44.9562C157.499 45.6161 158.269 46.221 159.039 46.7709C159.864 47.3208 160.716 47.8707 161.596 48.4207C162.476 48.9156 163.493 49.438 164.648 49.9879C164.428 50.7578 164.236 51.5827 164.071 52.4626C163.961 53.2875 163.851 54.3598 163.741 55.6796C163.686 56.9994 163.631 58.6217 163.576 60.5464C163.521 62.4712 163.493 64.8633 163.493 67.7229C163.493 70.1426 163.493 72.1498 163.493 73.7446C163.548 75.2843 163.603 76.5492 163.658 77.539C163.713 78.5289 163.796 79.3538 163.906 80.0137C164.016 80.6186 164.126 81.196 164.236 81.7459C163.136 82.1309 162.008 82.6533 160.854 83.3132C159.754 83.9731 158.626 84.7155 157.472 85.5404C156.372 86.3653 155.327 87.2177 154.337 88.0975C153.347 88.9774 152.467 89.8298 151.697 90.6547L151.202 90.1597Z" fill="#425539"/>
<path d="M120.333 80.5085C120.333 87.4925 120.581 92.1394 121.076 94.449C119.536 94.449 117.858 94.669 116.044 95.1089C114.229 95.6039 112.387 96.2638 110.517 97.0887C108.702 97.9135 106.915 98.8759 105.155 99.9758C103.396 101.131 101.828 102.368 100.453 103.688C97.3189 101.378 94.4043 99.7008 91.7097 98.6559C89.0151 97.6111 86.183 97.0887 83.2134 97.0887C83.6533 94.779 84.3407 92.6618 85.2756 90.7371C86.2654 88.8673 87.3928 87.3275 88.6576 86.1177C89.2625 86.1727 90.1974 86.4477 91.4622 86.9426C92.782 87.4925 94.2118 88.1799 95.7516 89.0048C97.2914 89.8297 98.8037 90.7096 100.288 91.6444C101.828 92.5793 103.148 93.4867 104.248 94.3666L110.435 92.3868C110.325 91.6719 110.215 90.902 110.105 90.0772C110.05 89.2523 109.995 88.2349 109.94 87.0251C109.885 85.8153 109.83 84.3305 109.775 82.5707C109.72 80.866 109.665 78.7763 109.61 76.3016C108.565 77.0715 107.382 77.8139 106.063 78.5288C104.798 79.2437 103.478 79.9036 102.103 80.5085C100.728 81.1134 99.3261 81.6634 97.8963 82.1583C96.5215 82.5982 95.2017 82.9557 93.9369 83.2306C91.2422 80.481 88.2452 78.6113 84.9456 77.6214C85.1656 76.8515 85.3581 76.0816 85.5231 75.3118C85.688 74.4869 85.798 73.607 85.853 72.6721C85.963 71.6823 86.0455 70.5824 86.1005 69.3726C86.1555 68.1078 86.183 66.623 86.183 64.9182C86.183 60.4639 86.073 57.0268 85.853 54.6072C85.633 52.1875 85.2756 50.4553 84.7807 49.4104C86.0455 49.1905 87.4203 48.8605 88.9051 48.4206C90.3899 47.9806 91.8747 47.4582 93.3594 46.8533C94.8442 46.2484 96.3015 45.561 97.7313 44.7911C99.1611 44.0212 100.453 43.2238 101.608 42.3989C104.908 43.3888 107.547 44.1037 109.527 44.5436C111.562 44.9286 113.294 45.121 114.724 45.121C115.989 45.121 117.364 45.0111 118.848 44.7911C120.388 44.5161 121.708 44.1862 122.808 43.8012C122.368 44.6811 121.983 45.726 121.653 46.9358C121.323 48.1456 121.048 49.6304 120.828 51.3902C120.663 53.1499 120.526 55.2396 120.416 57.6593C120.361 60.0789 120.333 62.9385 120.333 66.238V80.5085ZM101.856 50.5653C101.251 51.1702 100.481 51.8301 99.5461 52.545C98.6112 53.2599 97.7588 53.8373 96.9889 54.2772C97.1539 55.872 97.2364 58.8691 97.2364 63.2685C97.2364 65.5781 97.2089 67.5304 97.1539 69.1251C97.0989 70.6649 96.9889 72.1497 96.824 73.5795C97.8138 73.5245 98.9137 73.387 100.123 73.1671C101.333 72.9471 102.516 72.6721 103.67 72.3422C104.88 72.0122 106.008 71.6548 107.052 71.2698C108.097 70.8299 108.95 70.39 109.61 69.95V66.6505C109.61 63.021 109.665 60.0514 109.775 57.7417C109.885 55.4321 110.077 53.5898 110.352 52.215C109.802 52.215 109.142 52.1875 108.372 52.1325C107.657 52.0226 106.915 51.8851 106.145 51.7201C105.375 51.5551 104.605 51.3901 103.835 51.2252C103.066 51.0052 102.406 50.7852 101.856 50.5653Z" fill="#425539"/>
<path d="M76.2306 44.9561V75.2293C76.2306 78.6938 76.973 80.701 78.4578 81.2509V82.4882C76.6981 82.7632 75.0483 83.0931 73.5085 83.4781C71.9687 83.863 70.374 84.303 68.7242 84.7979H68.3117C66.442 82.2683 65.5071 79.2987 65.5071 75.8892V47.1832L62.4551 45.8634V44.9561C64.3798 44.6811 66.4695 44.3236 68.7242 43.8837C70.9789 43.3888 72.9861 42.9213 74.7458 42.4814L76.2306 44.9561ZM63.1975 28.8708C64.1323 27.2761 65.2597 25.7088 66.5795 24.169C67.9543 22.5742 69.4666 21.3369 71.1164 20.457C71.4463 20.897 71.9412 21.4194 72.6011 22.0243C73.316 22.6292 74.0584 23.2341 74.8283 23.8391C75.6532 24.444 76.4231 25.0214 77.138 25.5713C77.9079 26.0662 78.4853 26.4237 78.8703 26.6437C77.0005 27.9635 75.4057 29.2558 74.0859 30.5206C72.8211 31.7304 71.7213 33.2702 70.7864 35.1399C70.4564 34.755 69.934 34.2876 69.2191 33.7376C68.5592 33.1327 67.8443 32.5278 67.0744 31.9229C66.3045 31.318 65.5621 30.7406 64.8472 30.1907C64.1323 29.6407 63.5824 29.2008 63.1975 28.8708Z" fill="#425539"/>
<path d="M23.6741 21.5295C22.8493 22.2994 22.1344 23.3442 21.5294 24.6641C20.9795 25.9289 20.5121 27.3312 20.1271 28.871C19.7972 30.3558 19.5497 31.923 19.3848 33.5728C19.2198 35.1676 19.1373 36.7074 19.1373 38.1921V48.6682C20.952 48.8881 22.8493 49.0256 24.829 49.0806C26.8087 49.0806 28.8434 49.0806 30.9331 49.0806C32.4179 49.0806 33.7927 49.0531 35.0575 48.9981C36.3223 48.9431 37.7521 48.8606 39.3469 48.7506V36.8723C39.3469 34.1777 39.1544 31.7581 38.7695 29.6134C38.3846 27.4137 37.6422 24.994 36.5423 22.3544C38.522 22.6843 40.5842 22.8493 42.7289 22.8493C45.0386 22.8493 47.4033 22.7118 49.8229 22.4369C52.2976 22.1619 54.7997 21.8595 57.3294 21.5295C55.8446 22.4094 54.6897 23.5642 53.8649 24.994C53.04 26.3688 52.4076 27.8811 51.9676 29.5309C51.5827 31.1806 51.3352 32.8579 51.2252 34.5627C51.1702 36.2674 51.1427 37.8622 51.1427 39.347C51.1427 40.6118 51.1977 41.8766 51.3077 43.1414C51.4177 44.3513 51.6102 45.5336 51.8851 46.6884C52.2151 47.7883 52.6275 48.8056 53.1225 49.7405C53.6724 50.6754 54.3598 51.4453 55.1847 52.0502C54.1948 53.8099 53.2874 56.0096 52.4626 58.6492C51.6927 61.2889 51.3077 63.9285 51.3077 66.5681C51.3077 67.9979 51.3352 69.4002 51.3902 70.775C51.5002 72.0948 51.6927 73.3596 51.9676 74.5695C52.2976 75.7243 52.7375 76.7967 53.2874 77.7865C53.8924 78.7214 54.6623 79.4913 55.5971 80.0962C53.0125 81.0311 51.0603 82.2409 49.7404 83.7257C48.4206 85.2105 47.3208 86.6678 46.4409 88.0976C46.1659 87.3827 45.6985 86.6128 45.0386 85.7879C44.3787 85.018 43.6088 84.2756 42.7289 83.5607C41.8491 82.8458 40.8592 82.1859 39.7594 81.581C38.7145 80.9761 37.6147 80.4811 36.4598 80.0962C37.1747 79.3263 37.7246 78.3364 38.1096 77.1266C38.4945 75.8618 38.7695 74.4595 38.9345 72.9197C39.1544 71.3799 39.2644 69.7302 39.2644 67.9704C39.3194 66.2107 39.3469 64.4234 39.3469 62.6087V59.1442C37.7521 58.9792 36.3498 58.8692 35.14 58.8142C33.9852 58.7042 32.7479 58.6492 31.428 58.6492C28.9534 58.6492 26.7262 58.7042 24.7465 58.8142C22.8218 58.9242 21.007 59.0892 19.3023 59.3092V63.681C19.3023 67.2005 19.6322 70.555 20.2921 73.7446C20.952 76.8792 22.3543 79.9587 24.499 82.9833C22.0244 82.5983 19.7972 82.3509 17.8175 82.2409C15.8927 82.0759 14.188 81.9934 12.7032 81.9934C10.2285 81.9934 8.08385 82.0759 6.26911 82.2409C4.45437 82.4059 2.63963 82.6258 0.824883 82.9008C1.97972 82.1859 3.05207 81.251 4.04193 80.0962C5.03179 78.9414 5.88417 77.649 6.59906 76.2192C7.31396 74.7895 7.86388 73.2772 8.24883 71.6824C8.68877 70.0876 8.90874 68.4928 8.90874 66.8981C8.90874 64.0935 8.57878 61.3714 7.91888 58.7317C7.25897 56.0371 6.21412 53.8099 4.78432 52.0502C6.3241 49.1906 7.36895 46.5785 7.91888 44.2138C8.52379 41.8491 8.82625 39.402 8.82625 36.8723C8.82625 35.3325 8.74376 33.6828 8.57878 31.923C6.59906 31.4281 4.75682 30.3558 3.05207 28.706C1.4023 27.0562 0.384945 24.6366 0 21.447C2.30967 21.942 4.45437 22.2994 6.43409 22.5194C8.41381 22.7393 10.2835 22.8493 12.0433 22.8493C14.133 22.8493 16.0852 22.7118 17.9 22.4369C19.7697 22.1069 21.6944 21.8045 23.6741 21.5295Z" fill="#425539"/>
<path d="M269.837 35.5186C274.228 39.257 281.159 45.0451 289.169 51.3291C289.122 51.4874 289.079 51.6455 289.04 51.8027L281.204 50.8125V69.043C281.204 71.9022 281.891 74.0468 283.265 75.4766C284.695 76.9063 286.455 77.6761 288.544 77.7861V78.9414C287.61 79.2713 286.62 79.6839 285.576 80.1787C284.531 80.6736 283.513 81.1962 282.523 81.7461C281.533 82.241 280.598 82.7626 279.718 83.3125C278.838 83.8624 278.152 84.358 277.657 84.7979C276.392 84.028 275.1 83.2852 273.78 82.5703C272.46 81.8554 271.36 81.2778 270.48 80.8379V50.1523H263.633V49.2451C266.053 48.3103 268.335 46.8808 270.48 44.9561V42.3164C270.48 41.8765 270.425 41.1888 270.315 40.2539C270.26 39.2641 270.178 38.274 270.068 37.2842C270.002 36.6557 269.923 36.0674 269.837 35.5186ZM282.606 28.1279C282.386 28.6779 282.193 29.5307 282.028 30.6855C281.943 31.2826 281.857 31.9018 281.772 32.543C280.793 31.7211 279.81 30.8783 278.821 30.0166C280.04 29.4532 281.303 28.8249 282.606 28.1279Z" fill="#425539"/>
<path d="M343.182 2.24424C344.403 7.64672 341.264 13.082 335.975 14.7272L301.834 25.3379C300.123 25.8703 298.259 25.3959 297.01 24.1115L296.205 23.2839C294.898 21.9389 292.919 21.4923 291.16 22.1433L276.184 27.6821C323.464 70.2837 361.158 66.1353 350.038 81.3637C338.92 96.5896 264.847 31.2122 264.847 31.2122C248.64 38.9513 250.969 31.0003 250.969 31.0003C254.731 33.6927 262.303 27.4701 262.303 27.4701C261.809 27.3086 261.14 26.5516 260.499 25.6735C259.248 23.9576 259.639 21.5478 261.352 20.2937C263.04 19.0573 265.337 19.0649 267.017 20.3164L269.795 22.3831C273.222 19.6906 326.379 3.98535 339.563 0.117063C341.158 -0.349756 342.816 0.624255 343.182 2.24424ZM297.751 56.5668C297.751 56.5668 297.961 56.7182 298.354 57.0008C298.751 57.2809 299.329 57.6947 300.073 58.2095C300.817 58.7243 301.718 59.35 302.768 60.0515C303.812 60.7555 304.993 61.5479 306.293 62.3932C307.59 63.2436 309 64.157 310.504 65.1007C312.008 66.0495 313.593 67.0488 315.253 68.048C316.084 68.5476 316.926 69.0574 317.782 69.5746C318.637 70.0894 319.508 70.6016 320.388 71.1114C322.15 72.1308 323.951 73.1527 325.761 74.1596C327.58 75.1462 329.409 76.1202 331.226 77.0488C332.137 77.5106 333.043 77.9648 333.951 78.3887C334.855 78.8227 335.758 79.229 336.649 79.6276C337.098 79.8219 337.542 80.0112 337.981 80.203C338.428 80.3796 338.872 80.5562 339.308 80.7303C339.75 80.8944 340.194 81.0483 340.628 81.2047C341.072 81.3511 341.524 81.4873 341.96 81.6211C343.689 82.0854 345.48 82.3428 347.118 81.9794C347.931 81.7952 348.695 81.4016 349.235 80.8338C349.78 80.2686 350.093 79.5873 350.255 78.9489C350.416 78.3054 350.464 77.6922 350.449 77.1346C350.436 76.5769 350.378 76.0697 350.305 75.618C350.159 74.7147 349.949 74.0283 349.803 73.5666C349.652 73.1048 349.551 72.8676 349.551 72.8676C349.551 72.8676 349.621 73.1174 349.722 73.5893C349.821 74.0611 349.947 74.7601 350.015 75.6534C350.045 76.1 350.058 76.5946 350.022 77.1245C349.985 77.6544 349.904 78.2247 349.715 78.7899C349.525 79.3526 349.21 79.9077 348.738 80.3291C348.269 80.7531 347.648 81.0407 346.944 81.1568C346.24 81.2779 345.468 81.2476 344.681 81.1366C344.484 81.1038 344.284 81.0735 344.083 81.0407C343.883 80.9978 343.681 80.9524 343.477 80.907L343.323 80.8742L343.247 80.8565H343.237L343.227 80.8515L343.189 80.8414C343.086 80.8111 342.98 80.7808 342.876 80.7505C342.667 80.69 342.455 80.6269 342.24 80.5663C341.834 80.4225 341.431 80.2812 341.017 80.1273C340.6 79.9582 340.179 79.7917 339.755 79.615C339.334 79.4308 338.907 79.2441 338.476 79.0548C338.047 78.858 337.615 78.6587 337.179 78.4568C335.44 77.6392 333.674 76.7207 331.872 75.7922C330.075 74.856 328.266 73.8719 326.465 72.8752C324.658 71.886 322.856 70.8843 321.09 69.8825C319.323 68.8807 317.587 67.8941 315.907 66.9377C312.548 65.0124 309.414 63.2183 306.729 61.6791C305.385 60.9095 304.153 60.2055 303.061 59.5797C301.965 58.9564 301.012 58.4164 300.224 57.9672C299.437 57.5231 298.816 57.1749 298.395 56.9352C297.971 56.698 297.746 56.5718 297.746 56.5718L297.751 56.5668ZM266.79 24.808C265.728 24.4572 264.585 25.0351 264.234 26.0974C263.883 27.1597 264.461 28.3028 265.523 28.6536C266.586 29.0043 267.729 28.4265 268.079 27.3641C268.43 26.3018 267.852 25.1587 266.79 24.808ZM341.844 4.00049C341.849 4.36637 341.832 4.73478 341.801 5.09814C341.771 5.46403 341.731 5.82739 341.678 6.18823C341.653 6.36991 341.62 6.54907 341.584 6.72822C341.549 6.90738 341.509 7.08402 341.466 7.26065C341.42 7.43728 341.375 7.6114 341.319 7.78551C341.269 7.95962 341.206 8.12868 341.145 8.29774C341.08 8.46681 341.012 8.63335 340.933 8.79484C340.898 8.87811 340.855 8.95634 340.815 9.03456C340.774 9.11531 340.734 9.19353 340.686 9.26923C340.598 9.42568 340.497 9.56951 340.396 9.71586C340.287 9.85465 340.181 9.99595 340.058 10.1221C340 10.1877 339.937 10.2483 339.874 10.3063C339.808 10.3644 339.747 10.4274 339.677 10.4779C339.609 10.5309 339.541 10.5864 339.47 10.6344L339.25 10.7731C339.099 10.8539 338.948 10.9372 338.784 10.9927C338.627 11.0608 338.455 11.0961 338.291 11.1441L338.274 11.1491L333.487 12.6328L328.71 14.1469L323.944 15.6886L319.185 17.2531C317.598 17.7704 316.018 18.3129 314.433 18.8428C312.849 19.3702 311.272 19.9203 309.689 20.4603L307.322 21.2829C306.533 21.5554 305.745 21.833 304.958 22.1156L302.599 22.9584C301.811 23.2359 301.027 23.5261 300.242 23.8138C301.044 23.5842 301.849 23.3545 302.649 23.1148L305.051 22.4007C305.854 22.166 306.654 21.9238 307.451 21.679L309.848 20.9473C311.443 20.4476 313.04 19.9606 314.63 19.4534C316.222 18.9463 317.817 18.4492 319.404 17.9319L324.171 16.3876L328.93 14.8181L333.679 13.2208L338.418 11.5932L338.4 11.5983C338.587 11.5377 338.773 11.4898 338.95 11.404C339.132 11.3333 339.301 11.2324 339.467 11.134L339.707 10.9674C339.785 10.9094 339.856 10.8438 339.932 10.7832C340.007 10.7227 340.073 10.652 340.141 10.5839C340.209 10.5158 340.277 10.4476 340.335 10.3719C340.464 10.2281 340.573 10.0717 340.681 9.91521C340.782 9.75371 340.88 9.59222 340.964 9.42316C341.009 9.33989 341.049 9.25409 341.087 9.1683C341.125 9.0825 341.166 8.99671 341.198 8.91092C341.269 8.73681 341.332 8.56017 341.39 8.38354C341.446 8.20438 341.499 8.02775 341.542 7.84607C341.589 7.66691 341.625 7.48523 341.663 7.30355C341.698 7.12187 341.728 6.93766 341.753 6.75598C341.779 6.57178 341.801 6.3901 341.819 6.20589C341.854 5.83748 341.875 5.46908 341.877 5.10067C341.877 4.73226 341.87 4.36385 341.839 3.99797L341.844 4.00049Z" fill="#7E8D77"/>
</svg>
